<svg width="46" height="46" viewBox="0 0 46 46" fill="none" xmlns="http://www.w3.org/2000/svg">
<path fill-rule="evenodd" clip-rule="evenodd" d="M0 22.6667C0 10.1482 10.1482 0 22.6667 0C35.1851 0 45.3333 10.1482 45.3333 22.6667C45.3333 35.1851 35.1851 45.3333 22.6667 45.3333C10.1482 45.3333 0 35.1851 0 22.6667ZM26.0273 17.6327H32.43V15.7983H26.0273V17.6327ZM31.8656 19.1725C31.0951 18.8317 30.2294 18.6606 29.267 18.6606C27.6478 18.6606 26.3329 19.1669 25.3165 20.1725C24.3029 21.1808 23.7954 22.6295 23.7954 24.5186C23.7954 26.5324 24.3555 27.9882 25.4828 28.8815C26.6044 29.7763 27.9023 30.2222 29.3736 30.2222C31.1548 30.2222 32.5408 29.6921 33.5302 28.6333C34.1643 27.9657 34.5225 27.308 34.6007 26.6629H31.6509C31.4804 26.9826 31.2813 27.2323 31.0553 27.4132C30.6445 27.7455 30.1086 27.9124 29.4532 27.9124C28.8306 27.9124 28.3003 27.775 27.8596 27.5015C27.1318 27.0626 26.7508 26.2954 26.7025 25.2029H34.7528C34.7656 24.2619 34.7343 23.5383 34.6561 23.039C34.5225 22.1849 34.2296 21.4332 33.7733 20.7853C33.2729 20.0504 32.6375 19.5119 31.8656 19.1725ZM21.6702 16.6818C20.9097 15.6609 19.6203 15.1378 17.7979 15.1111H10.5778V29.8506H17.3103C18.0694 29.8506 18.7716 29.7861 19.4213 29.6528C20.0709 29.5182 20.6325 29.2728 21.1087 28.9124C21.5323 28.5982 21.8848 28.2111 22.1663 27.7526C22.6113 27.0598 22.833 26.2758 22.833 25.4021C22.833 24.555 22.6383 23.8342 22.2516 23.2424C21.8607 22.6491 21.2864 22.2158 20.5244 21.9409C21.0262 21.6885 21.4058 21.408 21.6645 21.1023C22.1265 20.5553 22.3554 19.8303 22.3554 18.9313C22.3554 18.0576 22.1265 17.3087 21.6702 16.6818Z" fill="#E5E5E5"/>
<path fill-rule="evenodd" clip-rule="evenodd" d="M13.5562 17.6705H16.8087C17.5237 17.6705 18.1122 17.7477 18.5757 17.9005C19.1102 18.1221 19.3774 18.5751 19.3774 19.2637C19.3774 19.8808 19.1741 20.3127 18.7704 20.5567C18.3639 20.8007 17.8365 20.9228 17.1897 20.9228H13.5562V17.6705ZM27.5443 21.6352C27.9523 21.2201 28.5294 21.0125 29.2686 21.0125C29.951 21.0125 30.521 21.2074 30.9844 21.5987C31.4422 21.9928 31.7009 22.565 31.7535 23.3223H26.7738C26.879 22.6127 27.1363 22.0503 27.5443 21.6352ZM13.5562 23.3616H17.2351C17.8748 23.3672 18.3738 23.4513 18.7292 23.6112C19.3646 23.8987 19.6802 24.4246 19.6802 25.1931C19.6802 26.0991 19.3533 26.7106 18.6979 27.0331C18.3383 27.2056 17.8322 27.2926 17.184 27.2926H13.5562V23.3616Z" fill="#E5E5E5"/>
</svg>
