<svg width="1468" height="935" viewBox="0 0 1468 935" fill="none" xmlns="http://www.w3.org/2000/svg">
<rect width="1468" height="935" fill="white"/>
<g clip-path="url(#clip0)">
<rect width="1468" height="935" fill="white"/>
<path fill-rule="evenodd" clip-rule="evenodd" d="M0 1499.94H3000V0H0V1499.94Z" fill="#180040"/>
<path fill-rule="evenodd" clip-rule="evenodd" d="M95.3 0C89.367 3.272 83.177 6.19 76.757 8.715C51.977 18.457 26.11 22.24 0 23.352V25.915C26.38 24.805 52.54 20.96 77.672 11.085C85.607 7.96 93.187 4.235 100.377 0H95.3" fill="#140035"/>
<path fill-rule="evenodd" clip-rule="evenodd" d="M184.192 0C158.032 29.785 122.937 52.808 82.825 65.417C55.872 73.89 28.04 78.015 0 80.005V82.545C28.26 80.555 56.347 76.393 83.57 67.835C124.877 54.845 160.937 30.945 187.55 0H184.192" fill="#140035"/>
<path fill-rule="evenodd" clip-rule="evenodd" d="M242.772 0C242.04 1.037 241.345 2.075 240.6 3.112C200.647 58.703 141.772 97.412 70.362 115.053C47.07 120.8 23.169 124.83 0 127.967V130.518C23.352 127.38 47.459 123.315 70.959 117.518C142.97 99.732 202.332 60.68 242.64 4.59C243.737 3.065 244.787 1.538 245.85 0H242.772" fill="#140035"/>
<path fill-rule="evenodd" clip-rule="evenodd" d="M328.87 892.652C353.002 914.308 394.775 910.133 431.702 906.445C504.87 899.12 579.857 886.378 660.95 867.455C684.937 861.865 709.252 855.348 732.762 849.072C783.459 835.522 835.865 821.51 888.367 815.6C966.077 806.885 1045.09 812.28 1119.37 818.53C1187.44 824.293 1265.77 827.832 1333.91 797.095C1385.52 773.803 1428.14 732.605 1457.16 677.955C1484.7 626.087 1497.22 566.09 1492.39 509.02C1486.25 436.255 1458.69 372.24 1414.79 328.772C1396.9 311.06 1375.74 296.167 1355.28 281.763C1323.56 259.435 1290.76 236.353 1270.52 202.66C1239.54 151.098 1251.52 82.41 1297.8 46.303C1355.86 1 1433.91 30.75 1464.78 45.655C1486.17 55.97 1506.79 68.152 1526.71 79.92C1566.28 103.283 1607.18 127.442 1655.25 137.61C1718.85 151.05 1784.23 145.74 1847.41 140.6L1853.56 140.1C1978.83 129.945 2107.71 129.005 2186.52 236.095C2216.84 277.295 2234.72 326.525 2252.03 374.132C2258.74 392.64 2265.7 411.78 2273.29 430.175C2277.49 440.417 2281.96 450.77 2286.25 460.79C2307.96 511.217 2330.39 563.368 2330.93 619.592C2331.61 691.625 2289.58 749.72 2246.46 803.027L2237.06 814.647C2192.72 869.36 2150.85 921.045 2116.38 982.567C2111.18 991.87 2106.18 1001.27 2100.85 1011.23C2074.78 1060.13 2047.83 1110.69 2002.39 1139.04C1948.63 1172.58 1881.15 1162.33 1821.61 1153.27L1818.02 1152.74C1743.82 1141.48 1671.04 1133.23 1596.71 1155.91C1557.37 1167.87 1520.35 1186.38 1484.54 1204.27C1455.37 1218.85 1425.21 1233.91 1394.15 1245.24C1385.31 1248.46 1376.49 1251.66 1367.69 1254.83C1306.07 1277.05 1247.88 1298.05 1191.17 1330.74C1139.45 1360.55 1095.57 1396.26 1049.11 1434.11C1039.7 1441.77 1030.26 1449.44 1020.73 1457.11C998.827 1474.68 977.697 1488.94 957.02 1500H977.185C993.58 1490.18 1010.16 1478.54 1027 1465.04C1036.56 1457.35 1046.01 1449.66 1055.43 1441.99C1101.58 1404.42 1145.15 1368.95 1196.17 1339.53C1252.1 1307.3 1309.9 1286.45 1371.08 1264.36C1379.89 1261.18 1388.73 1258.01 1397.58 1254.76C1429.17 1243.24 1459.59 1228.05 1489.01 1213.36C1524.45 1195.63 1561.08 1177.34 1599.61 1165.6C1671.95 1143.55 1743.5 1151.66 1816.53 1162.75L1820.12 1163.3C1881.35 1172.61 1950.78 1183.16 2007.71 1147.63C2055.42 1117.87 2083.03 1066.09 2109.74 1016.01C2115.01 1006.1 2119.99 996.753 2125.17 987.55C2159.21 926.782 2200.8 875.415 2244.87 821.045L2254.27 809.425C2296.61 757.08 2341.72 694.897 2340.99 619.495C2340.46 561.217 2317.6 508.118 2295.51 456.763C2291.21 446.777 2286.77 436.45 2282.57 426.295C2275.07 408.092 2268.17 389.063 2261.47 370.655C2243.94 322.362 2225.8 272.438 2194.6 230.053C2112.74 118.8 1980.83 119.618 1852.76 129.993L1846.61 130.493C1784.11 135.572 1719.51 140.833 1657.3 127.685C1610.84 117.86 1572.46 95.19 1531.81 71.18C1511.69 59.303 1490.89 47.01 1469.13 36.51C1436.58 20.8 1354.13 -10.473 1291.64 38.292C1241.38 77.502 1228.32 152.015 1261.91 207.91C1283.25 243.433 1316.94 267.138 1349.52 290.075C1369.64 304.235 1390.45 318.885 1407.74 335.998C1449.93 377.77 1476.43 439.515 1482.37 509.875C1492.23 626.6 1428.05 743.505 1329.78 787.843C1263.84 817.603 1187.03 814.088 1120.21 808.447C1045.43 802.125 965.857 796.705 887.254 805.543C834.01 811.522 781.225 825.635 730.187 839.282C706.75 845.532 682.507 852.027 658.68 857.567C578.002 876.393 503.442 889.088 430.64 896.362C395.837 899.83 356.397 903.785 335.572 885.082C324.842 875.465 319.457 860.548 319.115 839.478C318.262 785.938 339.685 729.797 382.787 672.645C391.37 661.255 400.207 649.792 408.752 638.697C442.932 594.322 478.282 548.438 505.75 497.485C536.255 440.93 565.967 373.683 596.607 291.92C627.6 209.205 639.087 135.083 631.702 65.32C629.247 42.03 624.182 20.482 617.31 0H606.737C613.915 20.74 619.177 42.518 621.705 66.395C628.907 134.545 617.615 207.14 587.195 288.342C556.715 369.678 527.185 436.5 496.912 492.652C469.825 542.87 434.74 588.428 400.805 632.482C392.237 643.603 383.385 655.09 374.767 666.515C330.272 725.513 308.167 783.765 309.057 839.647C309.435 863.697 315.917 881.03 328.87 892.652" fill="#140035"/>
<path fill-rule="evenodd" clip-rule="evenodd" d="M671.79 1489.58C658.68 1485.18 645.13 1480.62 631.932 1476.42C568.482 1456.22 496.667 1430.22 447.472 1376.91C410.34 1336.67 400.5 1282.79 390.979 1230.67C388.38 1216.41 385.692 1201.68 382.482 1187.47C374.635 1152.71 364.965 1117.85 352.917 1080.91C349.22 1069.53 345.715 1057.64 342.334 1046.12C335.057 1021.36 327.527 995.777 317.102 972.192C301.427 936.793 270.787 926.952 245.837 922.315C214.417 916.505 181.115 909.473 149.817 893.335C100.939 868.115 65.502 824.513 38.305 756.128C24.402 721.155 11.95 684.925 0 649.428V680.737C9.107 707.24 18.627 733.888 28.967 759.888C56.725 829.713 94.762 876.317 145.227 902.345C177.747 919.115 211.865 926.343 244.017 932.3C277.917 938.575 297.022 951.732 307.897 976.317C318.067 999.293 325.5 1024.56 332.677 1049C336.084 1060.57 339.612 1072.56 343.36 1084.06C355.31 1120.7 364.892 1155.27 372.667 1189.72C375.83 1203.74 378.49 1218.36 381.08 1232.5C390.857 1286.04 400.977 1341.41 440.1 1383.81C490.967 1438.94 564.22 1465.5 628.907 1486.08C642.017 1490.26 655.53 1494.8 668.602 1499.2C669.397 1499.46 670.202 1499.73 670.995 1500H703.1C692.602 1496.58 682.165 1493.07 671.79 1489.58" fill="#140035"/>
<path fill-rule="evenodd" clip-rule="evenodd" d="M1316.59 318.018C1285.61 292.87 1253.58 266.87 1230.3 233.485C1194.42 182.007 1192.7 110.607 1225.91 51.6C1237.55 30.92 1252.39 13.538 1269.49 0H1265.49C1249.17 13.44 1234.97 30.37 1223.72 50.355C1190.04 110.205 1191.81 182.665 1228.23 234.938C1251.71 268.627 1283.9 294.74 1315.01 319.982C1334.24 335.595 1354.14 351.732 1371.69 369.458C1416.83 415.015 1440.49 478.442 1436.6 543.458C1432.59 610.205 1400.46 672.107 1348.44 713.283C1270.01 775.343 1173.68 770.447 1080.52 765.735C1030.35 763.195 978.467 760.56 929.955 768.407C915.442 770.753 900.77 772.633 886.572 774.438C870.47 776.49 853.807 778.612 837.33 781.445C808.337 786.425 779.125 792.675 750.88 798.73C740.905 800.855 730.932 803.003 720.947 805.077L715.209 806.275C652.147 819.457 580.665 834.425 515.112 827.93C476.207 824.072 446.227 810.18 430.687 788.817C418.847 772.522 415.392 752.16 420.435 728.295C429.285 686.328 453.895 649.475 477.685 613.83C490.65 594.422 504.04 574.353 514.6 553.833C534.167 515.783 549.377 474.78 564.075 435.132C567.75 425.232 571.41 415.345 575.135 405.518C581.152 389.672 587.487 373.645 593.615 358.143C606.115 326.55 619.042 293.885 629.845 260.998C660.132 168.8 667.15 84.765 651.294 0H648.729C664.625 84.498 657.655 168.263 627.452 260.205C616.675 293.005 603.772 325.647 591.285 357.203C585.145 372.717 578.807 388.745 572.79 404.615C569.055 414.44 565.392 424.34 561.72 434.24C547.032 473.828 531.86 514.757 512.365 552.672C501.88 573.06 488.512 593.067 475.597 612.415C451.672 648.268 426.927 685.328 417.97 727.77C412.78 752.367 416.382 773.412 428.662 790.308C444.63 812.28 475.245 826.537 514.854 830.445C580.797 836.987 652.49 821.973 715.722 808.765L721.459 807.567C731.445 805.47 741.43 803.345 751.405 801.197C779.627 795.165 808.812 788.915 837.745 783.96C854.175 781.128 870.812 779.005 886.89 776.952C901.11 775.147 915.807 773.268 930.347 770.91C978.6 763.11 1030.35 765.735 1080.39 768.263C1174.02 773.01 1270.83 777.905 1349.99 715.27C1402.58 673.645 1435.06 611.085 1439.1 543.615C1443.04 477.868 1419.11 413.732 1373.48 367.663C1355.82 349.842 1335.88 333.667 1316.59 318.018" fill="#140035"/>
<path fill-rule="evenodd" clip-rule="evenodd" d="M1268.31 339.283C1250.46 322.46 1232.01 305.065 1215.6 286.5C1165.09 229.357 1147.19 165.663 1162.4 97.217C1170.42 61.132 1184.22 27.845 1202.09 0H1199.11C1181.49 27.82 1167.89 60.888 1159.95 96.655C1144.54 165.955 1162.63 230.395 1213.72 288.183C1230.2 306.835 1248.7 324.268 1266.59 341.125C1295.9 368.75 1326.21 397.315 1348.36 431.922C1384.9 488.99 1386.78 555.712 1353.38 610.413C1313.15 676.33 1245.36 699.987 1195.58 708.228C1146.84 716.297 1096.19 718.152 1047.22 719.935C1020.51 720.91 992.907 721.913 965.99 723.925C915.93 727.65 865.662 735.34 817.04 742.76C789.294 747.01 760.62 751.393 732.275 754.992L731.957 755.03C683.595 761.183 633.582 767.553 586.695 756.482C563.342 750.978 546.435 741.223 536.425 727.515C517.945 702.185 526.952 668.178 537.78 635.522C548.352 603.625 558.544 571.007 568.395 539.465C581.847 496.41 595.752 451.88 610.827 408.57C618.25 387.243 626.439 365.638 634.35 344.74C653.49 294.225 673.29 241.993 684.35 188.415C696.85 127.868 698.717 64.527 689.952 0H687.415C696.192 64.355 694.36 127.527 681.885 187.902C670.862 241.272 651.11 293.408 632.007 343.835C624.072 364.745 615.882 386.377 608.459 407.728C593.372 451.087 579.455 495.63 565.99 538.708C556.14 570.24 545.959 602.845 535.387 634.717C527.245 659.325 513.597 700.5 534.4 729.015C544.775 743.225 562.169 753.295 586.12 758.947C604.967 763.402 624.28 765.063 643.762 765.063C673.205 765.063 703.04 761.268 732.275 757.545L732.592 757.508C760.962 753.895 789.66 749.513 817.419 745.275C865.99 737.842 916.209 730.175 966.175 726.44C993.042 724.438 1020.63 723.438 1047.3 722.46C1096.36 720.678 1147.09 718.822 1195.99 710.73C1246.29 702.405 1314.78 678.467 1355.53 611.743C1389.44 556.19 1387.56 488.453 1350.49 430.555C1328.16 395.678 1297.73 367.005 1268.31 339.283" fill="#140035"/>
<path fill-rule="evenodd" clip-rule="evenodd" d="M1164.93 281.982C1124.41 229.578 1110.28 166.455 1124.05 99.462C1129.03 75.28 1138.51 38.465 1155.46 0H1152.71C1135.96 38.305 1126.55 74.865 1121.59 98.95C1107.65 166.7 1121.96 230.518 1162.94 283.545C1177.61 302.515 1195.2 320.995 1213.82 340.575C1270.75 400.39 1329.61 462.243 1313.01 546.337C1296.41 630.36 1200.72 655.458 1119.2 667.933C1091.22 672.217 1062.58 675.257 1034.88 678.21C1019.36 679.87 1003.33 681.58 987.584 683.485C970.325 685.572 953.027 687.768 935.729 689.978C877.392 697.413 817.077 705.103 757.617 708.215C674.437 712.585 625.537 691.76 612.267 646.362C603.467 616.26 606.995 582.678 611.365 550.88C611.937 546.74 612.035 540.942 612.145 534.228C612.427 517.993 612.817 495.752 621.13 489.112L621.459 488.708C625.83 480.382 626.917 470.728 627.955 461.39C628.357 457.752 628.747 454.322 629.31 450.953C631.762 436.377 636.535 421.815 641.15 407.728L642.725 402.893C651.635 375.5 662.207 348.205 672.437 321.79C676.905 310.23 681.542 298.268 685.975 286.462C712.939 214.563 727.002 141.92 727.76 70.533C728.015 47.12 726.685 23.315 725.147 0H722.632C724.169 23.315 725.5 47.132 725.245 70.507C724.487 141.59 710.472 213.953 683.617 285.56C679.187 297.362 674.56 309.315 670.092 320.875C659.85 347.315 649.267 374.645 640.345 402.1L638.757 406.933C634.117 421.105 629.31 435.768 626.83 450.525C626.257 453.967 625.842 457.592 625.452 461.107C624.45 470.13 623.4 479.442 619.347 487.305C610.314 494.848 609.937 516.638 609.632 534.18C609.522 540.82 609.425 546.545 608.875 550.538C604.467 582.605 600.902 616.493 609.85 647.07C622.327 689.757 664.99 711.315 736.792 711.315C743.517 711.315 750.512 711.132 757.74 710.755C817.297 707.63 877.66 699.94 936.047 692.493C953.345 690.283 970.617 688.085 987.877 685.998C1003.61 684.095 1019.64 682.385 1035.14 680.737C1062.88 677.783 1091.55 674.72 1119.58 670.435C1195.49 658.813 1298.39 633.362 1315.48 546.825C1332.34 461.45 1273.01 399.11 1215.64 338.817C1197.06 319.3 1179.52 300.855 1164.93 281.982" fill="#140035"/>
<path fill-rule="evenodd" clip-rule="evenodd" d="M1167.04 338.868C1138.79 304.638 1109.58 269.237 1093.7 227.417C1070.43 166.15 1085.96 98.755 1106.21 35.057C1109.84 23.645 1113.58 11.915 1117.42 0H1106.83C1103.34 10.852 1099.94 21.545 1096.63 31.97C1075.82 97.425 1059.92 166.845 1084.3 231.042C1100.78 274.428 1130.53 310.473 1159.3 345.337C1165.27 352.575 1171.45 360.07 1177.35 367.445C1223.99 425.672 1244.88 475.038 1239.48 514.16C1236.07 538.783 1222.06 560.01 1197.83 577.257C1136.72 620.752 1053.53 631.665 980.127 641.285L973.767 642.127C962.915 643.555 951.82 645.13 941.1 646.655C901.72 652.257 861.01 658.058 821.082 658.058C803.052 658.058 786.572 656.91 770.689 654.553C731.385 648.73 703.294 634.938 687.195 613.55C670.777 591.748 666.625 563.135 663.55 533.252C665.82 467.542 678.54 404.933 702.43 341.857C704.797 335.632 707.165 329.43 709.532 323.243C729.845 270.118 750.854 215.185 758.422 156.335C764.037 112.732 764.562 68.31 765.075 25.355C765.185 16.993 765.294 8.507 765.43 0H755.37C755.225 8.473 755.115 16.908 755.017 25.232C754.505 67.895 753.979 112.025 748.437 155.042C741.027 212.683 721.167 264.612 700.135 319.605C697.765 325.805 695.385 332.007 693.03 338.245C668.689 402.502 655.75 466.285 653.479 533.252L653.467 533.595L653.502 533.935C656.725 565.442 661.12 595.69 679.175 619.665C696.912 643.25 727.222 658.35 769.225 664.575C785.595 667.005 802.562 668.188 821.082 668.188C861.72 668.188 902.794 662.342 942.504 656.69C953.197 655.163 964.27 653.59 975.072 652.172L981.419 651.342C1055.98 641.565 1140.49 630.48 1203.64 585.535C1230.23 566.603 1245.64 543.055 1249.44 515.553C1255.33 472.962 1234.33 422.425 1185.19 361.085C1179.23 353.65 1173.03 346.13 1167.04 338.868" fill="#140035"/>
<path fill-rule="evenodd" clip-rule="evenodd" d="M1110.53 339.745C1078.05 298.498 1044.47 255.86 1034.2 203.71C1023.85 151.05 1040.08 98.717 1055.76 48.107C1060.67 32.288 1065.66 16.002 1069.77 0H1067.17C1063.11 15.748 1058.19 31.775 1053.36 47.35C1037.57 98.268 1021.25 150.915 1031.74 204.212C1042.11 256.945 1075.89 299.842 1108.56 341.32C1116.42 351.305 1124.55 361.62 1132.09 371.777C1180.94 437.61 1189.45 491.078 1157.36 530.7C1125.89 569.567 1069.29 583.422 1027.94 593.542C981.507 604.908 926.647 616.515 871.825 616.515H871.814C851.697 616.515 832.325 614.917 814.27 611.768C748.352 600.257 711.72 556.225 705.37 481.005C705.237 419.665 729.005 362.305 751.977 306.822C754.455 300.868 756.922 294.922 759.35 288.978C786.095 223.572 799 163.915 799.939 101.232L800.084 90.942C800.5 61.695 800.939 30.578 803.747 0H801.207C798.425 30.578 797.985 61.67 797.57 90.917L797.425 101.197C796.485 163.55 783.642 222.913 757.02 288.013C754.59 293.945 752.125 299.89 749.657 305.848C726.587 361.56 702.722 419.165 702.867 481.115C709.314 557.74 746.655 602.54 813.83 614.27C832.042 617.445 851.55 619.055 871.814 619.055H871.825C926.917 619.055 981.957 607.397 1028.54 595.995C1070.23 585.803 1127.31 571.825 1159.31 532.3C1192.23 491.663 1183.74 437.145 1134.11 370.263C1126.54 360.07 1118.41 349.743 1110.53 339.745" fill="#140035"/>
<path fill-rule="evenodd" clip-rule="evenodd" d="M0 186.107C5.407 184.583 10.802 183.08 16.125 181.605C72.875 165.808 131.555 149.475 182.617 117.895C230.932 88 267.675 47.095 303.137 0H299.975C265.027 46.24 228.747 86.377 181.3 115.735C130.542 147.132 72.032 163.415 15.454 179.163C10.365 180.578 5.187 182.02 0 183.473V186.107" fill="#140035"/>
<path fill-rule="evenodd" clip-rule="evenodd" d="M592.005 60.62C587.06 39.855 579.222 19.397 569.115 0H566.297C576.587 19.555 584.557 40.223 589.562 61.217C604.517 123.925 597.044 190.808 565.345 278.075C537.232 355.445 505.225 424.183 470.202 482.385C441.43 530.2 405.885 568.908 368.25 609.888C358.52 620.495 348.45 631.458 338.597 642.505C328.37 653.955 318.187 665.783 308.337 677.223C294.555 693.237 280.297 709.777 265.747 725.563C262.927 728.6 260.057 731.8 257.117 735.07C238.525 755.725 217.455 779.125 192.479 787.987C185.645 790.405 178.662 791.65 171.705 791.65H171.692C122.032 791.625 81.407 729.395 66.247 702.638C38.915 654.395 18.75 601.928 0 550.232V557.592C18.127 607.275 37.78 657.495 64.062 703.895C83.167 737.61 122.557 794.165 171.692 794.165H171.705C178.942 794.165 186.217 792.895 193.31 790.38C218.897 781.3 240.185 757.643 258.972 736.768C261.915 733.507 264.782 730.322 267.59 727.283C282.177 711.475 296.435 694.91 310.242 678.895C320.08 667.455 330.26 655.64 340.467 644.19C350.305 633.167 360.375 622.205 370.104 611.61C407.825 570.533 443.457 531.737 472.35 483.703C507.457 425.355 539.537 356.47 567.712 278.942C599.584 191.188 607.08 123.853 592.005 60.62" fill="#140035"/>
<path fill-rule="evenodd" clip-rule="evenodd" d="M1023.75 317.408C1010.45 302.82 996.705 287.732 985.035 272.217C962.682 242.518 951.452 216.81 949.682 191.32C947.742 163.33 959.032 137.013 969.957 111.547C972.632 105.335 975.39 98.902 977.867 92.615C986.34 71.192 1000.61 34.998 1004.76 0H1002.23C998.082 34.557 983.91 70.46 975.537 91.675C973.06 97.925 970.312 104.345 967.652 110.547C956.604 136.28 945.189 162.89 947.167 191.505C948.975 217.505 960.365 243.64 983.02 273.743C994.762 289.355 1008.56 304.48 1021.9 319.115C1049.22 349.098 1077.48 380.103 1091.33 418.127C1112.01 474.902 1072.12 515.87 1027.89 535.29C990.43 551.732 945.787 561.17 905.419 561.17C862.669 561.17 787.877 549.792 767.26 473.78C762.365 431.178 772.4 385.425 797.07 337.792C804.662 323.132 813.745 308.495 822.51 294.348C838.66 268.297 855.36 241.357 864.392 212.11C875.512 176.11 870.985 137.865 866.602 100.89C863.27 72.68 859.814 43.505 863.33 15.527C863.952 10.572 864.942 5.348 866.235 0H863.66C862.402 5.237 861.437 10.34 860.827 15.21C857.275 43.505 860.754 72.828 864.112 101.197C868.457 137.902 872.95 175.88 861.987 211.353C853.052 240.295 836.437 267.09 820.372 293.005C811.584 307.19 802.477 321.875 794.837 336.62C769.922 384.717 759.802 430.958 764.807 474.255C785.887 552.087 861.962 563.708 905.419 563.708H905.432C946.129 563.708 991.125 554.2 1028.89 537.61C1074.17 517.737 1114.98 475.672 1093.69 417.26C1079.66 378.76 1051.24 347.57 1023.75 317.408" fill="#140035"/>
<path fill-rule="evenodd" clip-rule="evenodd" d="M0 268.567C1.709 266.467 3.539 264.405 5.542 262.402C29.394 238.598 60.51 224.183 90.6 210.243C94.762 208.3 98.937 206.373 103.075 204.42C155.14 179.882 222.62 144.788 282.837 90.832C293.2 81.542 303.37 71.167 314.122 60.18C335.962 37.902 358.277 15.138 383.667 0H378.82C354.65 15.235 333.277 37.035 312.342 58.41C301.612 69.36 291.467 79.7 281.165 88.94C221.18 142.688 153.907 177.66 102.002 202.125C97.875 204.078 93.712 206.005 89.537 207.935C59.252 221.973 27.942 236.487 3.772 260.607C2.442 261.928 1.197 263.283 0 264.66V268.567" fill="#140035"/>
<path fill-rule="evenodd" clip-rule="evenodd" d="M553.32 73.315C544.055 45.74 526.122 18.03 501.685 0H497.314C522.79 17.59 541.455 45.922 550.939 74.12C567.895 124.525 565.442 183.178 543.457 253.442C522.985 318.822 490.82 388.183 450.415 454.015C414.832 512 369.74 557.092 312.987 606.958C310.462 609.18 307.85 611.5 305.14 613.893C268.945 645.973 219.372 689.917 171.07 689.917H171.057C163.415 689.917 155.97 688.77 148.937 686.522C100.842 671.118 73.132 622.547 50.342 572.34C28.65 524.547 13.38 473.975 0 423.607V433.325C12.829 480.785 27.587 528.295 48.06 573.4C71.082 624.12 99.144 673.23 148.18 688.94C155.457 691.26 163.147 692.445 171.057 692.445C171.07 692.445 171.07 692.445 171.07 692.445C220.325 692.445 270.312 648.145 306.8 615.795C309.51 613.402 312.122 611.085 314.635 608.875C371.57 558.85 416.81 513.598 452.552 455.348C493.067 389.342 525.33 319.788 545.85 254.2C568.017 183.41 570.459 124.23 553.32 73.315" fill="#140035"/>
<path fill-rule="evenodd" clip-rule="evenodd" d="M437.292 67.98C408.35 67.98 373.937 83.507 335.01 114.123C277.015 159.74 215.27 199.268 157.189 235.192C153.697 237.353 150.157 239.515 146.607 241.675C123.705 255.603 100.037 270.02 82.2872 290.125C57.3852 318.348 51.1722 354.945 50.3542 380.678C50.1352 387.792 50.1952 395.57 50.5622 404.455C60.9872 470.63 77.2352 538.135 125 582.592C142.175 598.56 162.33 606.665 184.9 606.665H184.912C226.502 606.665 269.225 579.712 297.755 559.435C393.372 491.493 466.505 381.775 503.675 250.525C516.712 204.48 529.967 138.39 494.715 96.192C479.064 77.477 459.752 67.98 437.292 67.98ZM184.912 609.192H184.9C161.669 609.192 140.942 600.868 123.302 584.447C74.9622 539.465 58.5702 471.473 48.0602 404.7C47.6802 395.605 47.6202 387.768 47.8402 380.59C48.6822 354.442 55.0052 317.225 80.4072 288.44C98.4002 268.055 122.252 253.54 145.312 239.502C148.852 237.342 152.38 235.192 155.872 233.033C213.892 197.143 275.562 157.665 333.472 112.123C372.84 81.152 407.775 65.442 437.292 65.442C460.522 65.442 480.492 75.245 496.642 94.555C532.665 137.683 519.287 204.615 506.092 251.22C468.775 383.02 395.3 493.225 299.207 561.51C270.41 581.982 227.209 609.192 184.912 609.192V609.192Z" fill="#140035"/>
<path fill-rule="evenodd" clip-rule="evenodd" d="M968.834 844.532C956.47 844.532 944.3 844.947 932.677 845.825C853.442 851.66 777.672 872.755 714.002 892.628C693.775 898.95 672.765 904.81 652.452 910.497C603.552 924.145 552.99 938.282 507.117 960.133C468.86 978.37 424.437 1013.99 430.09 1080.15C447.657 1191.46 497.265 1340.11 633.85 1415.77C705.895 1455.67 774.622 1478.05 838.122 1482.33C842.772 1482.64 847.497 1482.81 852.16 1482.81C907.347 1482.81 962.817 1461.47 1026.73 1415.65C1040.27 1405.93 1053.87 1395.92 1067.02 1386.28C1112.07 1353.15 1158.65 1318.9 1209.26 1291.67C1236.25 1277.17 1264.77 1264.11 1292.34 1251.49C1331.48 1233.57 1371.95 1215.06 1408.75 1192.02C1425.27 1181.69 1441.59 1170.14 1457.36 1158.99C1497.83 1130.35 1539.67 1100.73 1589.4 1088.33C1614.89 1081.96 1642.38 1078.98 1675.85 1078.98C1701.61 1078.98 1727.83 1080.76 1753.2 1082.5C1771.71 1083.74 1790.84 1085.06 1809.42 1085.62C1817.33 1085.87 1824.68 1085.99 1831.88 1085.99C1879.83 1085.99 1950.1 1081.15 2006.42 1039.41C2043.28 1012.08 2071.78 974.902 2099.34 938.915C2109.98 925.025 2120.99 910.67 2132.3 897.12C2144.09 883.008 2156.42 868.897 2168.36 855.25C2201.95 816.87 2236.69 777.173 2263.16 732.495C2298.14 673.388 2302.81 605.48 2277 530.688C2253.73 463.232 2222.36 392.59 2183.76 320.703C2151.49 260.632 2109.21 219.555 2058.03 198.62C2014.72 180.895 1966.63 172.645 1906.69 172.645C1867.65 172.645 1827.51 176.123 1788.67 179.493C1750 182.837 1710.01 186.303 1671.29 186.303C1657.35 186.303 1644.51 185.877 1631.98 184.998C1595.17 182.385 1564.31 175.513 1537.69 163.978C1517.5 155.225 1499.34 142.518 1481.77 130.225C1470.43 122.303 1458.7 114.1 1446.56 107.055C1422.95 93.348 1402.28 86.695 1383.38 86.695C1375.39 86.695 1367.61 87.902 1360.25 90.308C1330.15 100.123 1314.68 127.308 1321.78 157.97C1330.52 195.777 1369.21 218.237 1403.37 238.038C1410.51 242.188 1417.25 246.105 1423.51 250.038C1467.8 277.857 1497.92 328.112 1515.61 403.663C1530.64 467.785 1545.29 551.623 1525.17 631.47C1507.9 699.95 1471.86 764.49 1426.28 808.52C1383.74 849.635 1324.51 869.63 1245.2 869.63C1198.79 869.63 1151.33 863.013 1113.18 857.715C1066.49 851.22 1018.2 844.532 968.834 844.532ZM852.172 1485.33C852.172 1485.33 852.172 1485.33 852.16 1485.33C847.437 1485.33 842.662 1485.18 837.952 1484.86C774.084 1480.57 705.005 1458.06 632.642 1417.99C495.165 1341.84 445.252 1192.41 427.587 1080.45C421.802 1012.75 467.064 976.415 506.042 957.838C552.1 935.888 602.77 921.728 651.782 908.058C672.07 902.367 693.067 896.51 713.257 890.21C777.062 870.313 853.002 849.145 932.495 843.285C944.177 842.433 956.407 841.992 968.834 841.992C1018.37 841.992 1066.75 848.705 1113.54 855.2C1151.59 860.497 1198.96 867.09 1245.2 867.09C1323.83 867.09 1382.48 847.34 1424.53 806.69C1469.79 762.975 1505.58 698.89 1522.73 630.848C1542.72 551.538 1528.13 468.09 1513.17 404.248C1495.63 329.382 1465.87 279.638 1422.18 252.185C1415.95 248.28 1409.23 244.373 1402.11 240.235C1367.52 220.165 1328.31 197.425 1319.32 158.545C1311.93 126.525 1328.06 98.132 1359.48 87.89C1367.09 85.412 1375.13 84.155 1383.38 84.155C1402.73 84.155 1423.81 90.93 1447.81 104.857C1460.06 111.95 1471.83 120.19 1483.2 128.15C1500.67 140.368 1518.72 152.99 1538.67 161.645C1565.04 173.072 1595.6 179.882 1632.15 182.47C1644.6 183.35 1657.42 183.777 1671.29 183.777C1709.91 183.777 1749.85 180.31 1788.48 176.965C1827.34 173.595 1867.55 170.105 1906.69 170.105C1966.97 170.105 2015.36 178.417 2058.98 196.277C2110.69 217.433 2153.42 258.9 2185.99 319.495C2224.66 391.505 2256.08 462.28 2279.39 529.857C2305.44 605.395 2300.71 674.01 2265.31 733.79C2238.74 778.662 2203.93 818.457 2170.26 856.933C2158.33 870.558 2145.99 884.668 2134.23 898.755C2122.95 912.255 2111.96 926.612 2101.34 940.478C2073.66 976.588 2045.07 1013.92 2007.91 1041.43C1950.98 1083.64 1880.17 1088.5 1831.88 1088.5C1824.66 1088.5 1817.28 1088.4 1809.35 1088.16C1790.72 1087.57 1771.56 1086.28 1753.03 1085.01C1727.71 1083.3 1701.51 1081.52 1675.85 1081.52C1642.58 1081.52 1615.31 1084.47 1589.99 1090.77C1540.72 1103.08 1499.08 1132.54 1458.8 1161.06C1443 1172.24 1426.66 1183.81 1410.08 1194.19C1373.13 1217.29 1332.59 1235.84 1293.38 1253.81C1265.84 1266.41 1237.38 1279.44 1210.45 1293.92C1159.98 1321.07 1113.48 1355.25 1068.5 1388.3C1055.35 1398 1041.73 1407.98 1028.18 1417.7C963.83 1463.84 907.897 1485.33 852.172 1485.33V1485.33Z" fill="#140035"/>
<path fill-rule="evenodd" clip-rule="evenodd" d="M111.34 429.53C116.175 459.325 130.26 511.487 170.422 528.797C181.495 533.57 193.395 535.987 205.81 535.987C239.452 535.987 277.807 518.603 319.812 484.303C387.842 428.772 440.675 332.995 454.43 240.295C458.74 211.268 458.922 173.755 435.327 159.79C427.977 155.445 419.495 153.235 410.095 153.235C377.99 153.235 339.965 178.625 314.807 195.422C311.975 197.315 309.277 199.11 306.737 200.783C292.162 210.353 277.1 219.64 262.525 228.612C233.007 246.79 202.502 265.587 175 287.5C155.26 303.223 138.854 322.033 123.352 346.667C109.459 368.763 110.314 396.41 111.145 423.145C111.205 425.28 111.28 427.417 111.34 429.53ZM205.81 546.13H205.797C192.03 546.118 178.785 543.433 166.455 538.11C121.727 518.835 106.457 462.61 101.342 430.81L101.282 430.14C101.22 427.93 101.16 425.708 101.087 423.462C100.245 396.51 99.3052 365.967 114.845 341.248C130.97 315.612 148.095 296.007 168.75 279.553C196.727 257.263 227.502 238.305 257.262 219.97C271.777 211.022 286.792 201.783 301.232 192.297C303.76 190.638 306.432 188.855 309.24 186.975C335.412 169.507 374.95 143.103 410.095 143.103C421.312 143.103 431.517 145.777 440.43 151.05C463.257 164.563 471.312 195.092 464.392 241.785C450.28 336.853 396.02 435.145 326.147 492.175C282.312 527.978 241.822 546.13 205.81 546.13V546.13Z" fill="#140035"/>
<path fill-rule="evenodd" clip-rule="evenodd" d="M525.025 1109.23C549.732 1231.37 633.702 1344.68 739.025 1397.9C778.612 1417.89 821.277 1428.49 862.39 1428.49C887.927 1428.49 912.987 1424.49 936.852 1416.58C989.917 1399.05 1037.36 1365.33 1083.26 1332.74C1096.48 1323.34 1110.16 1313.62 1123.64 1304.54C1166.15 1275.9 1211.07 1249.54 1254.52 1224.05C1278.34 1210.06 1302.98 1195.61 1326.87 1180.98C1355.41 1163.5 1381.83 1141.48 1405.41 1115.55C1418.36 1101.32 1429.6 1085.08 1440.48 1069.38C1450.44 1055 1460.75 1040.14 1472.48 1026.56C1492.71 1003.17 1520.62 991.798 1557.79 991.798C1582.35 991.798 1607.59 996.51 1631.98 1001.05C1641.11 1002.76 1649.73 1004.34 1658.15 1005.69C1709.47 1013.79 1762.53 1022.19 1815.01 1022.19C1840.72 1022.19 1864.06 1020.21 1886.35 1016.16C1922.46 1009.59 1954.93 997.46 1982.88 980.077C2002.71 967.75 2019.9 951.317 2036.5 935.45C2044.83 927.49 2053.44 919.287 2062.33 911.598C2077.98 898.072 2091.82 881.737 2105.22 865.918C2112.67 857.152 2120.36 848.072 2128.29 839.55C2131.28 836.378 2134.25 833.178 2137.23 829.98C2159.4 806.3 2182.33 781.787 2201.81 755.335C2231.69 714.795 2264.04 650.732 2248.49 575.77C2236.89 519.873 2207.96 467.663 2179.98 417.175C2174.68 407.618 2169.19 397.717 2163.99 388.063C2136.47 337.123 2100.71 281.178 2043.78 252.527C2000.49 230.712 1950.17 220.995 1880.64 220.995C1868.82 220.995 1855.96 221.265 1841.28 221.825L1833.45 222.12C1763.94 224.755 1692.06 227.465 1627.44 253.578C1560.91 280.445 1562.82 346.41 1570.46 411.683C1571.95 424.45 1573.71 437.72 1575.39 450.55C1583.13 509.46 1591.14 570.362 1582.57 628.235C1574.05 685.815 1550.27 741.112 1527.24 794.58C1523.25 803.883 1519.26 813.16 1515.39 822.362C1513.65 826.513 1511.92 830.713 1510.17 834.96C1500.61 858.277 1490.72 882.372 1475.41 902.393C1454.17 930.175 1422.63 936.28 1394.58 938.575C1385.68 939.308 1376.33 939.673 1366.78 939.673C1323.83 939.673 1280.33 932.3 1238.28 925.17C1226.05 923.095 1213.4 920.947 1201.11 919.067C1180.74 915.918 1159.97 912.305 1139.9 908.838C1088.8 899.95 1035.99 890.795 983.875 888.135C976.087 887.72 968.14 887.525 960.265 887.525C902.112 887.525 842.297 898.12 777.405 919.872C707.042 943.482 648.18 968.872 597.447 997.485C544.495 1027.34 520.13 1064.94 525.025 1109.23ZM862.402 1438.62H862.39C819.715 1438.62 775.487 1427.66 734.51 1406.96C680.272 1379.54 631.017 1336.94 592.077 1283.71C554.027 1231.74 527.417 1172.02 515.125 1111.01L515.052 1110.57C509.544 1061.77 535.62 1020.75 592.53 988.647C643.822 959.718 703.26 934.082 774.229 910.277C840.16 888.16 901.012 877.393 960.265 877.393C968.31 877.393 976.427 877.612 984.387 878.003C1037.1 880.713 1090.22 889.918 1141.61 898.827C1161.64 902.32 1182.35 905.907 1202.64 909.032C1215 910.938 1227.68 913.11 1239.95 915.185C1281.6 922.24 1324.67 929.54 1366.78 929.54C1376.06 929.54 1385.13 929.175 1393.76 928.468C1419.62 926.367 1448.59 920.85 1467.43 896.215C1481.93 877.245 1491.56 853.785 1500.87 831.103C1502.63 826.83 1504.37 822.582 1506.13 818.407C1510.01 809.18 1514 799.902 1518.02 790.553C1540.77 737.683 1564.31 683.007 1572.61 626.745C1580.96 570.275 1573.05 510.095 1565.4 451.88C1563.72 439.013 1561.96 425.708 1560.47 412.865C1552.71 346.728 1550.56 273.705 1623.68 244.165C1689.94 217.408 1762.69 214.66 1833.06 212L1840.89 211.695C1855.69 211.132 1868.7 210.865 1880.64 210.865C1951.81 210.865 2003.51 220.91 2048.29 243.458C2107.69 273.377 2144.58 330.895 2172.83 383.215C2178.03 392.835 2183.49 402.697 2188.77 412.243C2217.11 463.39 2246.43 516.285 2258.35 573.695C2271.26 635.95 2254.49 700.855 2209.89 761.378C2190.06 788.305 2166.92 813.013 2144.55 836.938C2141.6 840.112 2138.62 843.31 2135.64 846.485C2127.88 854.835 2120.26 863.817 2112.89 872.51C2099.24 888.598 2085.11 905.25 2068.9 919.287C2060.18 926.808 2051.66 934.938 2043.43 942.798C2026.44 959.032 2008.86 975.805 1988.18 988.697C1959.15 1006.74 1925.49 1019.36 1888.16 1026.15C1865.23 1030.3 1841.31 1032.33 1815.01 1032.33C1761.74 1032.33 1708.3 1023.88 1656.59 1015.7C1648.02 1014.33 1639.35 1012.72 1630.15 1011.01C1606.2 1006.57 1581.42 1001.95 1557.79 1001.95C1523.23 1001.95 1498.53 1011.89 1480.08 1033.23C1468.69 1046.39 1458.54 1061.04 1448.73 1075.2C1437.67 1091.16 1426.23 1107.67 1412.83 1122.41C1388.61 1149.05 1361.45 1171.66 1332.1 1189.63C1308.12 1204.32 1283.45 1218.8 1259.59 1232.81C1216.27 1258.23 1171.48 1284.52 1129.23 1312.96C1115.86 1321.97 1102.23 1331.67 1089.06 1341.01C1042.56 1374.05 994.482 1408.2 939.99 1426.22C915.112 1434.45 889.002 1438.62 862.402 1438.62V1438.62Z" fill="#140035"/>
<path fill-rule="evenodd" clip-rule="evenodd" d="M342.077 267.627C317.455 267.627 283.79 284.875 271.104 291.37C240.942 306.822 171.752 350.147 180.86 418.505C190.015 451.928 213.562 458.973 231.702 458.973C249.022 458.985 269.567 452.38 288.084 440.857C312 425.978 332.532 404.272 347.459 378.075C355.152 364.575 379.395 317.933 368.567 284.425C364.965 273.28 356.055 267.627 342.077 267.627ZM231.702 461.51V461.51C212.682 461.51 188.012 454.138 178.405 419.007C169.042 348.877 239.32 304.81 269.97 289.112C282.787 282.545 316.845 265.1 342.077 265.1C357.275 265.1 366.992 271.337 370.972 283.643C382.117 318.14 357.457 365.612 349.645 379.333C334.51 405.895 313.685 427.917 289.405 443.018C270.507 454.772 249.475 461.51 231.702 461.51V461.51Z" fill="#140035"/>
<path fill-rule="evenodd" clip-rule="evenodd" d="M918.615 353.175C898.865 353.175 879.407 362.877 865.209 379.797C850.245 397.632 843.47 421.095 847.07 442.542C856.58 475.525 893.677 490.357 926.207 490.357C926.22 490.357 926.22 490.357 926.22 490.357C959.557 490.357 987.025 475.88 997.9 452.563C1003.89 439.71 1003.88 425.745 997.84 411.072C986.877 384.388 960.217 364.355 940.075 357.02C933.07 354.467 925.842 353.175 918.615 353.175ZM926.22 492.895C926.22 492.895 926.22 492.895 926.207 492.895C892.737 492.882 854.53 477.49 844.617 443.103C840.857 420.788 847.852 396.558 863.292 378.163C877.967 360.67 898.12 350.647 918.615 350.647C926.135 350.647 933.642 351.99 940.93 354.638C961.572 362.158 988.915 382.715 1000.17 410.095C1006.4 425.245 1006.4 440.295 1000.17 453.638C988.879 477.845 960.547 492.895 926.22 492.895V492.895Z" fill="#140035"/>
<path fill-rule="evenodd" clip-rule="evenodd" d="M335.45 1454.69C302.93 1439.06 284.79 1421.34 278.382 1398.92C270.727 1372.17 278.027 1343.82 285.082 1316.43C285.865 1313.43 286.632 1310.45 287.377 1307.47C308.459 1223.37 303.979 1155 273.669 1098.46C244.385 1043.82 193.97 1010.01 145.215 977.32C95.655 944.093 44.41 909.74 15.564 853.515C9.607 841.92 4.505 829.857 0 817.553V824.683C3.955 834.912 8.337 844.947 13.33 854.688C42.467 911.5 93.995 946.02 143.81 979.442C192.322 1011.96 242.467 1045.58 271.459 1099.66C301.452 1155.62 305.86 1223.39 284.937 1306.86C284.192 1309.82 283.422 1312.79 282.655 1315.79C275.842 1342.24 268.115 1372.19 275.952 1399.61C284.667 1430.08 313.465 1446.92 334.362 1456.96C373.169 1475.58 414.037 1489.06 454.895 1500H464.832C421.02 1488.65 377.027 1474.63 335.45 1454.69" fill="#140035"/>
<path fill-rule="evenodd" clip-rule="evenodd" d="M953.382 931.813C951.257 931.813 949.145 931.835 947.022 931.86C879.979 932.787 811.817 953.468 744.432 993.31C667.492 1038.79 634.62 1089.89 646.705 1145.14C671.837 1222.78 732.885 1355.83 859.117 1373.39C867.077 1374.49 875.22 1375.05 883.3 1375.05C942.725 1375.05 997.447 1345.14 1047.74 1312.82C1064.37 1302.13 1081.57 1291.53 1098.19 1281.3C1140.92 1255 1185.09 1227.83 1224.52 1195.83C1227.21 1193.63 1230.03 1191.38 1232.95 1189.04C1269.15 1159.99 1318.74 1120.21 1317.69 1072.54C1316.33 1011.62 1236.34 988.622 1183.41 973.388C1178.84 972.095 1174.5 970.85 1170.48 969.652C1116 953.418 1034.23 931.813 953.382 931.813ZM883.3 1377.59C883.3 1377.59 883.312 1377.59 883.3 1377.59C875.097 1377.59 866.845 1377.03 858.777 1375.9C731.189 1358.16 669.63 1224.12 644.287 1145.83C631.897 1089.23 665.172 1037.23 743.152 991.112C810.925 951.05 879.504 930.25 946.985 929.322C1030.14 928.175 1115.13 950.513 1171.19 967.213C1175.21 968.407 1179.54 969.652 1184.09 970.973C1237.74 986.402 1318.81 1009.72 1320.2 1072.49C1321.29 1121.41 1271.13 1161.64 1234.51 1191.01C1231.6 1193.36 1228.8 1195.61 1226.11 1197.8C1186.55 1229.91 1142.31 1257.13 1099.51 1283.47C1082.88 1293.7 1065.71 1304.27 1049.1 1314.94C998.487 1347.49 943.372 1377.59 883.3 1377.59V1377.59Z" fill="#140035"/>
</g>
<defs>
<clipPath id="clip0">
<rect width="1468" height="935" fill="white"/>
</clipPath>
</defs>
</svg>
