<svg width="46" height="46" viewBox="0 0 46 46" fill="none" xmlns="http://www.w3.org/2000/svg">
<path fill-rule="evenodd" clip-rule="evenodd" d="M0.333496 22.6667C0.333496 10.1482 10.4817 0 23.0002 0C35.5186 0 45.6668 10.1482 45.6668 22.6667C45.6668 35.1851 35.5186 45.3333 23.0002 45.3333C10.4817 45.3333 0.333496 35.1851 0.333496 22.6667ZM35.0891 22.6499C35.0891 21.8317 35.0058 21.0136 34.8423 20.2195C34.6829 19.4426 34.4468 18.6787 34.1375 17.9507C33.8353 17.234 33.4604 16.5431 33.0225 15.8994C32.591 15.2593 32.0939 14.6604 31.5479 14.1127C31.0007 13.5681 30.3986 13.0736 29.7592 12.6409C29.1135 12.2041 28.4222 11.8298 27.7056 11.5256C26.9753 11.2173 26.2109 10.981 25.4347 10.823C24.6377 10.6603 23.8184 10.5778 22.9997 10.5778C22.1803 10.5778 21.361 10.6603 20.5652 10.823C19.7878 10.981 19.0234 11.2173 18.2937 11.5256C17.5771 11.8298 16.8853 12.2041 16.2395 12.6409C15.6002 13.0736 14.9981 13.5681 14.452 14.1127C13.9054 14.6604 13.4083 15.2593 12.9762 15.8994C12.5406 16.5431 12.1651 17.234 11.8617 17.9507C11.5524 18.6787 11.3157 19.4426 11.1557 20.2195C10.9939 21.0136 10.9113 21.8317 10.9113 22.6499C10.9113 23.4675 10.9939 24.2839 11.1557 25.0797C11.3156 25.8565 11.5523 26.6193 11.8617 27.3485C12.1651 28.0647 12.5405 28.7549 12.9762 29.3986C13.4083 30.0382 13.9054 30.6383 14.452 31.1853C14.998 31.7299 15.6001 32.2256 16.2394 32.6589C16.8852 33.0939 17.5771 33.4682 18.2937 33.7718C19.0233 34.0795 19.7878 34.3153 20.5652 34.4744C21.3609 34.6383 22.1803 34.722 22.9996 34.722C23.8183 34.722 24.6377 34.6383 25.4346 34.4744C26.2108 34.3153 26.9753 34.0795 27.7055 33.7718C28.4222 33.4682 29.1134 33.0939 29.7592 32.6589C30.3985 32.2256 31.0006 31.7299 31.5478 31.1853C32.0939 30.6383 32.5909 30.0382 33.0224 29.3986C33.4604 28.7549 33.8353 28.0647 34.1375 27.3485C34.4468 26.6193 34.6829 25.8566 34.8423 25.0797C35.0058 24.2839 35.0891 23.4675 35.0891 22.6499Z" fill="#E5E5E5"/>
<path fill-rule="evenodd" clip-rule="evenodd" d="M25.221 20.1801C29.2971 18.5178 30.9529 16.1287 30.9724 16.101C32.4209 17.857 33.2964 20.0999 33.32 22.5437C33.1706 22.5131 29.6766 21.7633 26.13 22.209C26.0574 22.0322 25.9831 21.8553 25.9069 21.6749C25.6926 21.1721 25.4606 20.6717 25.221 20.1801ZM28.7687 31.1994C28.6636 30.5781 28.1134 27.5518 26.7592 23.8359C30.0916 23.3024 32.9799 24.2155 33.1924 24.2838C32.7332 27.1569 31.0868 29.6374 28.7687 31.1994ZM24.8248 24.3133C26.2776 28.0835 26.8773 31.2406 27.0302 32.1414C25.7911 32.6677 24.4293 32.9583 22.9996 32.9583C20.6053 32.9583 18.407 32.1372 16.6544 30.7762C16.6759 30.7295 18.6651 26.4562 24.7564 24.3357C24.7788 24.3275 24.8018 24.321 24.8248 24.3133ZM29.8177 14.9127C29.7923 14.9504 28.3218 17.1856 24.4264 18.6439C22.6608 15.4067 20.7216 12.8378 20.5669 12.6303C21.3467 12.4429 22.1608 12.3415 22.9996 12.3415C25.6135 12.3415 28.0001 13.3123 29.8177 14.9127ZM23.2835 20.8533C23.5793 21.4321 23.8621 22.0192 24.1212 22.6051C23.9854 22.644 23.8484 22.6841 23.7139 22.7289C18.1426 24.5279 15.3173 29.533 15.3209 29.5383C13.6763 27.7127 12.6757 25.2983 12.6757 22.6499C12.6757 22.5391 12.681 22.4318 12.684 22.321C12.8669 22.328 17.9678 22.4424 23.2835 20.8533ZM18.5947 13.3253C18.7323 13.5086 20.6413 16.0957 22.4282 19.2658C17.4714 20.5809 13.1692 20.5267 12.897 20.5243C13.567 17.3318 15.7158 14.6828 18.5947 13.3253Z" fill="#E5E5E5"/>
</svg>
