<svg width="46" height="45" viewBox="0 0 46 45" fill="none" xmlns="http://www.w3.org/2000/svg">
<path fill-rule="evenodd" clip-rule="evenodd" d="M22.6669 0C10.1499 0 0 10.3211 0 23.0538C0 33.2398 6.49474 41.8815 15.501 44.9299C16.6338 45.1433 17.0497 44.4298 17.0497 43.8209C17.0497 43.2711 17.0287 41.4551 17.0189 39.5287C10.713 40.9233 9.38234 36.8086 9.38234 36.8086C8.35124 34.1438 6.86559 33.4353 6.86559 33.4353C4.80903 32.0044 7.02061 32.0338 7.02061 32.0338C9.29676 32.196 10.4953 34.4095 10.4953 34.4095C12.5169 37.934 15.7979 36.9151 17.0914 36.326C17.2948 34.8363 17.8822 33.8186 18.5305 33.2432C13.4958 32.6603 8.20335 30.6835 8.20335 21.8497C8.20335 19.3327 9.08881 17.2762 10.5388 15.6617C10.3035 15.0806 9.5276 12.7362 10.7584 9.56062C10.7584 9.56062 12.6618 8.94101 16.9934 11.9238C18.8015 11.413 20.7405 11.1568 22.6669 11.148C24.5932 11.1568 26.5337 11.413 28.3452 11.9238C32.6715 8.94101 34.5723 9.56062 34.5723 9.56062C35.8061 12.7362 35.0299 15.0806 34.7945 15.6617C36.2479 17.2762 37.1274 19.3327 37.1274 21.8497C37.1274 30.7045 31.8247 32.6542 26.7774 33.2249C27.5904 33.9403 28.3148 35.3433 28.3148 37.4942C28.3148 40.5785 28.2885 43.0612 28.2885 43.8209C28.2885 44.4344 28.6965 45.1533 29.8455 44.9269C38.8468 41.875 45.3333 33.2364 45.3333 23.0538C45.3333 10.3211 35.1849 0 22.6669 0Z" fill="#E5E5E5"/>
<path fill-rule="evenodd" clip-rule="evenodd" d="M8.58509 33.1005C8.53517 33.2154 8.358 33.2493 8.1966 33.1707C8.03219 33.0955 7.93985 32.9393 7.99316 32.8244C8.04195 32.7065 8.21949 32.674 8.38352 32.7523C8.5483 32.8279 8.64214 32.9855 8.58509 33.1005Z" fill="#E5E5E5"/>
<path fill-rule="evenodd" clip-rule="evenodd" d="M9.5032 34.1419C9.3951 34.2438 9.18378 34.1965 9.04039 34.0354C8.89213 33.8747 8.86435 33.6597 8.97395 33.5563C9.08543 33.4543 9.29038 33.5021 9.43902 33.6628C9.58728 33.8254 9.61618 34.0388 9.5032 34.1419Z" fill="#E5E5E5"/>
<path fill-rule="evenodd" clip-rule="evenodd" d="M10.3969 35.4697C10.258 35.5678 10.0309 35.4758 9.89057 35.2708C9.75169 35.0658 9.75169 34.8199 9.89357 34.7214C10.0343 34.6229 10.258 34.7115 10.4003 34.915C10.5388 35.1231 10.5388 35.3693 10.3969 35.4697Z" fill="#E5E5E5"/>
<path fill-rule="evenodd" clip-rule="evenodd" d="M11.6213 36.7524C11.4971 36.8918 11.2325 36.8544 11.0388 36.6643C10.8406 36.4783 10.7854 36.2145 10.91 36.0752C11.0358 35.9355 11.3019 35.9748 11.4971 36.1634C11.6938 36.3489 11.7538 36.6146 11.6213 36.7524Z" fill="#E5E5E5"/>
<path fill-rule="evenodd" clip-rule="evenodd" d="M13.3104 37.4973C13.2556 37.6778 13.0007 37.7599 12.744 37.6832C12.4876 37.6042 12.3199 37.3927 12.3717 37.2102C12.425 37.0285 12.6809 36.9429 12.9396 37.025C13.1956 37.1037 13.3637 37.3136 13.3104 37.4973Z" fill="#E5E5E5"/>
<path fill-rule="evenodd" clip-rule="evenodd" d="M15.1654 37.6355C15.1718 37.8256 14.9541 37.9833 14.6846 37.9863C14.4136 37.9928 14.1944 37.839 14.1914 37.6519C14.1914 37.4599 14.4042 37.3037 14.6752 37.2991C14.9447 37.2938 15.1654 37.4465 15.1654 37.6355Z" fill="#E5E5E5"/>
<path fill-rule="evenodd" clip-rule="evenodd" d="M16.8917 37.3366C16.9239 37.5221 16.7366 37.7126 16.469 37.763C16.2059 37.8122 15.9623 37.6977 15.9289 37.5137C15.8962 37.3236 16.0869 37.1331 16.3497 37.0838C16.6177 37.0365 16.8575 37.148 16.8917 37.3366Z" fill="#E5E5E5"/>
</svg>
