<svg width="46" height="46" viewBox="0 0 46 46" fill="none" xmlns="http://www.w3.org/2000/svg">
<path fill-rule="evenodd" clip-rule="evenodd" d="M0.333496 22.6667C0.333496 10.1482 10.4817 0 23.0002 0C35.5186 0 45.6668 10.1482 45.6668 22.6667C45.6668 35.1851 35.5186 45.3333 23.0002 45.3333C10.4817 45.3333 0.333496 35.1851 0.333496 22.6667ZM16.3517 18.7734H11.2149V34.2073H16.3517V18.7734ZM16.6903 13.9991C16.6569 12.4859 15.5748 11.3333 13.8175 11.3333C12.0603 11.3333 10.9114 12.4859 10.9114 13.9991C10.9114 15.4811 12.0263 16.6669 13.7508 16.6669H13.7837C15.5748 16.6669 16.6903 15.4811 16.6903 13.9991ZM34.8765 25.3581C34.8765 20.6175 32.3424 18.4111 28.9622 18.4111C26.2349 18.4111 25.0138 19.9091 24.3321 20.96V18.774H19.1947C19.2624 20.2222 19.1947 34.2078 19.1947 34.2078H24.3321V25.5883C24.3321 25.127 24.3654 24.6669 24.5012 24.3366C24.8725 23.4151 25.7178 22.461 27.1369 22.461C28.9964 22.461 29.7398 23.8763 29.7398 25.9503V34.2074H34.8763L34.8765 25.3581Z" fill="#E5E5E5"/>
</svg>
