<svg width="186" height="36" viewBox="0 0 186 36" fill="none" xmlns="http://www.w3.org/2000/svg">
    <path
        d="M8.84792 24.192C6.71992 24.192 5.01592 23.792 3.73592 22.992C2.45592 22.176 1.81592 20.936 1.81592 19.272C1.81592 18.392 1.96792 17.72 2.27192 17.256C2.57592 16.792 3.02392 16.56 3.61592 16.56C4.04792 16.56 4.39992 16.672 4.67192 16.896C4.94392 17.12 5.07992 17.408 5.07992 17.76C5.07992 18.08 5.05592 18.36 5.00792 18.6C5.00792 18.664 4.99192 18.776 4.95992 18.936C4.94392 19.096 4.93592 19.264 4.93592 19.44C4.93592 20.16 5.29592 20.696 6.01592 21.048C6.75192 21.4 7.77592 21.576 9.08792 21.576C10.4479 21.576 11.5119 21.336 12.2799 20.856C13.0479 20.36 13.4319 19.672 13.4319 18.792C13.4319 18.248 13.2559 17.784 12.9039 17.4C12.5519 17 12.1119 16.672 11.5839 16.416C11.0559 16.144 10.3119 15.816 9.35192 15.432C8.11992 14.952 7.11192 14.496 6.32792 14.064C5.55992 13.632 4.89592 13.048 4.33592 12.312C3.79192 11.56 3.51992 10.632 3.51992 9.528C3.51992 8.376 3.82392 7.352 4.43192 6.456C5.05592 5.56 5.94392 4.864 7.09592 4.368C8.26392 3.872 9.63192 3.624 11.1999 3.624C12.3679 3.624 13.4399 3.8 14.4159 4.152C15.3919 4.488 16.1679 5.008 16.7439 5.712C17.3359 6.416 17.6319 7.28 17.6319 8.304C17.6319 9.312 17.4799 10.072 17.1759 10.584C16.8719 11.096 16.4239 11.352 15.8319 11.352C15.4159 11.352 15.0639 11.224 14.7759 10.968C14.5039 10.712 14.3679 10.408 14.3679 10.056C14.3679 9.752 14.3919 9.472 14.4399 9.216C14.4879 8.736 14.5119 8.432 14.5119 8.304C14.5119 7.632 14.1839 7.12 13.5279 6.768C12.8719 6.416 12.0559 6.24 11.0799 6.24C9.70392 6.24 8.64792 6.496 7.91192 7.008C7.19192 7.504 6.83192 8.208 6.83192 9.12C6.83192 9.728 7.01592 10.248 7.38392 10.68C7.76792 11.112 8.23992 11.472 8.79992 11.76C9.35992 12.048 10.1439 12.392 11.1519 12.792C12.3679 13.288 13.3439 13.736 14.0799 14.136C14.8159 14.536 15.4399 15.08 15.9519 15.768C16.4799 16.456 16.7439 17.304 16.7439 18.312C16.7439 20.2 16.0239 21.656 14.5839 22.68C13.1599 23.688 11.2479 24.192 8.84792 24.192ZM21.7445 24.12C20.7525 24.12 19.9605 23.76 19.3685 23.04C18.7765 22.32 18.4805 21.376 18.4805 20.208C18.4805 18.928 18.7765 17.72 19.3685 16.584C19.9605 15.432 20.7445 14.512 21.7205 13.824C22.7125 13.12 23.7605 12.768 24.8645 12.768C25.2165 12.768 25.4485 12.84 25.5605 12.984C25.6885 13.112 25.7925 13.352 25.8725 13.704C26.2085 13.64 26.5605 13.608 26.9285 13.608C27.7125 13.608 28.1045 13.888 28.1045 14.448C28.1045 14.784 27.9845 15.584 27.7445 16.848C27.3765 18.688 27.1925 19.968 27.1925 20.688C27.1925 20.928 27.2485 21.12 27.3605 21.264C27.4885 21.408 27.6485 21.48 27.8405 21.48C28.1445 21.48 28.5125 21.288 28.9445 20.904C29.3765 20.504 29.9605 19.864 30.6965 18.984C30.8885 18.76 31.1045 18.648 31.3445 18.648C31.5525 18.648 31.7125 18.744 31.8245 18.936C31.9525 19.128 32.0165 19.392 32.0165 19.728C32.0165 20.368 31.8645 20.864 31.5605 21.216C30.9045 22.032 30.2085 22.72 29.4725 23.28C28.7365 23.84 28.0245 24.12 27.3365 24.12C26.8085 24.12 26.3205 23.944 25.8725 23.592C25.4405 23.224 25.1125 22.728 24.8885 22.104C24.0565 23.448 23.0085 24.12 21.7445 24.12ZM22.6085 21.696C22.9605 21.696 23.2965 21.488 23.6165 21.072C23.9365 20.656 24.1685 20.104 24.3125 19.416L25.2005 15C24.5285 15.016 23.9045 15.272 23.3285 15.768C22.7685 16.248 22.3205 16.888 21.9845 17.688C21.6485 18.488 21.4805 19.336 21.4805 20.232C21.4805 20.728 21.5765 21.096 21.7685 21.336C21.9765 21.576 22.2565 21.696 22.6085 21.696ZM31.77 24.12C31.162 24.12 30.73 23.8 30.474 23.16C30.234 22.52 30.114 21.496 30.114 20.088C30.114 18.008 30.41 16.032 31.002 14.16C31.146 13.696 31.378 13.36 31.698 13.152C32.034 12.928 32.498 12.816 33.09 12.816C33.41 12.816 33.634 12.856 33.762 12.936C33.89 13.016 33.954 13.168 33.954 13.392C33.954 13.648 33.834 14.224 33.594 15.12C33.434 15.76 33.306 16.32 33.21 16.8C33.114 17.28 33.034 17.872 32.97 18.576C33.498 17.2 34.09 16.08 34.746 15.216C35.402 14.352 36.042 13.736 36.666 13.368C37.306 13 37.89 12.816 38.418 12.816C39.458 12.816 39.978 13.336 39.978 14.376C39.978 15 39.802 16.128 39.45 17.76C39.146 19.152 38.994 20.072 38.994 20.52C38.994 21.16 39.226 21.48 39.69 21.48C40.01 21.48 40.386 21.288 40.818 20.904C41.266 20.504 41.858 19.864 42.594 18.984C42.786 18.76 43.002 18.648 43.242 18.648C43.45 18.648 43.61 18.744 43.722 18.936C43.85 19.128 43.914 19.392 43.914 19.728C43.914 20.368 43.762 20.864 43.458 21.216C42.77 22.064 42.026 22.76 41.226 23.304C40.442 23.848 39.546 24.12 38.538 24.12C37.722 24.12 37.106 23.888 36.69 23.424C36.274 22.944 36.066 22.256 36.066 21.36C36.066 20.912 36.178 20.112 36.402 18.96C36.61 17.952 36.714 17.256 36.714 16.872C36.714 16.616 36.626 16.488 36.45 16.488C36.242 16.488 35.946 16.76 35.562 17.304C35.194 17.832 34.81 18.536 34.41 19.416C34.026 20.296 33.714 21.224 33.474 22.2C33.298 22.952 33.09 23.464 32.85 23.736C32.626 23.992 32.266 24.12 31.77 24.12ZM55.6042 18.648C55.8122 18.648 55.9722 18.744 56.0842 18.936C56.2122 19.128 56.2762 19.392 56.2762 19.728C56.2762 20.368 56.1242 20.864 55.8202 21.216C55.1642 22.016 54.4442 22.704 53.6602 23.28C52.8762 23.84 52.1002 24.12 51.3322 24.12C50.1162 24.12 49.1882 23.408 48.5482 21.984C47.8762 22.832 47.2842 23.4 46.7722 23.688C46.2762 23.976 45.6922 24.12 45.0202 24.12C44.0442 24.12 43.2362 23.76 42.5962 23.04C41.9722 22.304 41.6602 21.352 41.6602 20.184C41.6602 18.904 41.9322 17.72 42.4762 16.632C43.0202 15.528 43.7642 14.632 44.7082 13.944C45.6682 13.24 46.7402 12.824 47.9242 12.696C48.2282 9.592 48.8042 6.944 49.6522 4.752C50.5162 2.544 51.6442 1.44 53.0362 1.44C53.7242 1.44 54.2922 1.752 54.7402 2.376C55.2042 3 55.4362 3.944 55.4362 5.208C55.4362 7 54.9962 9.096 54.1162 11.496C53.2362 13.896 52.0602 16.36 50.5882 18.888C50.6522 19.816 50.7882 20.48 50.9962 20.88C51.2202 21.28 51.5002 21.48 51.8362 21.48C52.2682 21.48 52.7082 21.288 53.1562 20.904C53.6042 20.52 54.2042 19.88 54.9562 18.984C55.1482 18.76 55.3642 18.648 55.6042 18.648ZM52.7722 3.792C52.4682 3.792 52.1642 4.336 51.8602 5.424C51.5562 6.496 51.2922 7.904 51.0682 9.648C50.8602 11.392 50.7082 13.216 50.6122 15.12C52.4042 11.216 53.3002 8.08 53.3002 5.712C53.3002 5.104 53.2442 4.632 53.1322 4.296C53.0362 3.96 52.9162 3.792 52.7722 3.792ZM45.8602 21.696C46.1642 21.696 46.4682 21.576 46.7722 21.336C47.0762 21.08 47.4602 20.616 47.9242 19.944C47.7642 19.08 47.6842 18.112 47.6842 17.04C47.6842 16.656 47.7002 16.032 47.7322 15.168C46.8522 15.44 46.1162 16.032 45.5242 16.944C44.9482 17.84 44.6602 18.84 44.6602 19.944C44.6602 21.112 45.0602 21.696 45.8602 21.696ZM57.4678 11.232C56.7958 11.232 56.2918 11.08 55.9558 10.776C55.6198 10.456 55.4518 10.016 55.4518 9.456C55.4518 8.896 55.6678 8.432 56.0998 8.064C56.5478 7.68 57.0998 7.488 57.7558 7.488C58.3478 7.488 58.8278 7.632 59.1958 7.92C59.5638 8.208 59.7478 8.616 59.7478 9.144C59.7478 9.784 59.5398 10.296 59.1238 10.68C58.7078 11.048 58.1558 11.232 57.4678 11.232ZM57.2758 24.12C56.2358 24.12 55.4758 23.752 54.9958 23.016C54.5318 22.28 54.2998 21.304 54.2998 20.088C54.2998 19.368 54.3878 18.448 54.5638 17.328C54.7558 16.192 54.9958 15.136 55.2838 14.16C55.4278 13.648 55.6198 13.296 55.8598 13.104C56.0998 12.912 56.4838 12.816 57.0118 12.816C57.8278 12.816 58.2358 13.088 58.2358 13.632C58.2358 14.032 58.0838 14.96 57.7798 16.416C57.3958 18.176 57.2038 19.368 57.2038 19.992C57.2038 20.472 57.2678 20.84 57.3958 21.096C57.5238 21.352 57.7398 21.48 58.0438 21.48C58.3318 21.48 58.6918 21.28 59.1238 20.88C59.5558 20.48 60.1318 19.848 60.8518 18.984C61.0438 18.76 61.2598 18.648 61.4998 18.648C61.7078 18.648 61.8678 18.744 61.9798 18.936C62.1078 19.128 62.1718 19.392 62.1718 19.728C62.1718 20.368 62.0198 20.864 61.7158 21.216C60.1318 23.152 58.6518 24.12 57.2758 24.12ZM69.734 16.68C69.734 17.944 69.438 19.144 68.846 20.28C68.27 21.4 67.494 22.312 66.518 23.016C65.558 23.72 64.526 24.088 63.422 24.12C63.214 27.208 62.742 29.784 62.006 31.848C61.27 33.928 60.19 34.968 58.766 34.968C57.902 34.968 57.262 34.656 56.846 34.032C56.43 33.408 56.222 32.544 56.222 31.44C56.222 29.872 56.582 28.04 57.302 25.944C58.022 23.864 59.134 21.568 60.638 19.056C60.638 16.72 60.622 15.096 60.59 14.184C60.574 13.72 60.758 13.352 61.142 13.08C61.526 12.808 62.006 12.672 62.582 12.672C62.918 12.672 63.158 12.744 63.302 12.888C63.462 13.016 63.55 13.28 63.566 13.68C63.566 14.08 63.574 14.376 63.59 14.568C64.102 13.928 64.606 13.472 65.102 13.2C65.598 12.912 66.126 12.768 66.686 12.768C67.582 12.768 68.31 13.128 68.87 13.848C69.446 14.568 69.734 15.512 69.734 16.68ZM63.542 21.816C64.118 21.688 64.646 21.376 65.126 20.88C65.622 20.368 66.014 19.744 66.302 19.008C66.59 18.256 66.734 17.472 66.734 16.656C66.734 16.176 66.638 15.816 66.446 15.576C66.254 15.32 65.998 15.192 65.678 15.192C65.102 15.192 64.406 15.8 63.59 17.016C63.574 17.72 63.566 18.752 63.566 20.112C63.566 20.848 63.558 21.416 63.542 21.816ZM58.958 32.616C59.39 32.616 59.75 31.672 60.038 29.784C60.326 27.912 60.51 25.576 60.59 22.776C59.902 24.376 59.358 25.904 58.958 27.36C58.558 28.816 58.358 30.04 58.358 31.032C58.358 31.544 58.422 31.936 58.55 32.208C58.662 32.48 58.798 32.616 58.958 32.616ZM87.2704 24.12C85.3664 24.12 83.7104 23.776 82.3024 23.088C80.8944 22.384 79.8144 21.392 79.0624 20.112C78.3104 18.832 77.9344 17.344 77.9344 15.648C77.9344 13.296 78.3744 11.208 79.2544 9.384C80.1504 7.56 81.3584 6.152 82.8784 5.16C84.3984 4.152 86.0864 3.648 87.9424 3.648C89.6704 3.648 90.9824 4.096 91.8784 4.992C92.7744 5.872 93.2224 7.04 93.2224 8.496C93.2224 9.472 93.0464 10.256 92.6944 10.848C92.3584 11.44 91.8704 11.736 91.2304 11.736C90.7824 11.736 90.4304 11.632 90.1744 11.424C89.9184 11.216 89.7904 10.912 89.7904 10.512C89.7904 10.368 89.8224 10.104 89.8864 9.72C89.9824 9.24 90.0304 8.856 90.0304 8.568C90.0304 7.112 89.2544 6.384 87.7024 6.384C86.6464 6.384 85.6384 6.728 84.6784 7.416C83.7184 8.104 82.9424 9.12 82.3504 10.464C81.7584 11.792 81.4624 13.376 81.4624 15.216C81.4624 17.136 81.9984 18.624 83.0704 19.68C84.1424 20.72 85.7264 21.24 87.8224 21.24C88.8624 21.24 89.9104 21.112 90.9664 20.856C92.0384 20.584 93.2224 20.176 94.5184 19.632C94.7584 19.536 94.9584 19.488 95.1184 19.488C95.3744 19.488 95.5664 19.584 95.6944 19.776C95.8224 19.968 95.8864 20.216 95.8864 20.52C95.8864 21.496 95.3584 22.216 94.3024 22.68C93.1664 23.176 91.9824 23.544 90.7504 23.784C89.5344 24.008 88.3744 24.12 87.2704 24.12ZM107.323 18.648C107.531 18.648 107.691 18.744 107.803 18.936C107.931 19.128 107.995 19.392 107.995 19.728C107.995 20.368 107.843 20.864 107.539 21.216C106.803 22.064 106.043 22.76 105.259 23.304C104.491 23.848 103.611 24.12 102.619 24.12C101.803 24.12 101.187 23.888 100.771 23.424C100.355 22.944 100.147 22.256 100.147 21.36C100.147 20.912 100.259 20.112 100.483 18.96C100.691 17.952 100.795 17.256 100.795 16.872C100.795 16.616 100.707 16.488 100.531 16.488C100.323 16.488 100.027 16.76 99.6435 17.304C99.2595 17.832 98.8755 18.536 98.4915 19.416C98.1075 20.296 97.7955 21.224 97.5555 22.2C97.2515 23.48 96.4995 24.12 95.2995 24.12C94.8195 24.12 94.4995 23.952 94.3395 23.616C94.1955 23.264 94.1235 22.64 94.1235 21.744C94.1235 21.232 94.1315 20.824 94.1475 20.52L94.1715 18.6C94.1715 16.136 94.4195 13.568 94.9155 10.896C95.4275 8.224 96.1715 5.984 97.1475 4.176C98.1395 2.352 99.3235 1.44 100.699 1.44C101.435 1.44 102.027 1.76 102.475 2.4C102.939 3.024 103.171 3.84 103.171 4.848C103.171 6.464 102.699 8.144 101.755 9.888C100.811 11.616 99.2755 13.64 97.1475 15.96C97.0995 16.792 97.0755 17.648 97.0755 18.528C97.6035 17.168 98.1875 16.064 98.8275 15.216C99.4835 14.352 100.123 13.736 100.747 13.368C101.387 13 101.971 12.816 102.499 12.816C103.539 12.816 104.059 13.336 104.059 14.376C104.059 15 103.883 16.128 103.531 17.76C103.227 19.152 103.075 20.072 103.075 20.52C103.075 21.16 103.307 21.48 103.771 21.48C104.091 21.48 104.467 21.288 104.899 20.904C105.347 20.504 105.939 19.864 106.675 18.984C106.867 18.76 107.083 18.648 107.323 18.648ZM100.195 3.816C99.9075 3.816 99.5875 4.232 99.2355 5.064C98.8835 5.88 98.5395 6.992 98.2035 8.4C97.8835 9.792 97.6195 11.312 97.4115 12.96C98.4035 11.792 99.2195 10.52 99.8595 9.144C100.515 7.768 100.843 6.52 100.843 5.4C100.843 4.888 100.787 4.496 100.675 4.224C100.563 3.952 100.403 3.816 100.195 3.816ZM109.002 24.12C108.01 24.12 107.218 23.76 106.626 23.04C106.034 22.32 105.738 21.376 105.738 20.208C105.738 18.928 106.034 17.72 106.626 16.584C107.218 15.432 108.002 14.512 108.978 13.824C109.97 13.12 111.018 12.768 112.122 12.768C112.474 12.768 112.706 12.84 112.818 12.984C112.946 13.112 113.05 13.352 113.13 13.704C113.466 13.64 113.818 13.608 114.186 13.608C114.97 13.608 115.362 13.888 115.362 14.448C115.362 14.784 115.242 15.584 115.002 16.848C114.634 18.688 114.45 19.968 114.45 20.688C114.45 20.928 114.506 21.12 114.618 21.264C114.746 21.408 114.906 21.48 115.098 21.48C115.402 21.48 115.77 21.288 116.202 20.904C116.634 20.504 117.218 19.864 117.954 18.984C118.146 18.76 118.362 18.648 118.602 18.648C118.81 18.648 118.97 18.744 119.082 18.936C119.21 19.128 119.274 19.392 119.274 19.728C119.274 20.368 119.122 20.864 118.818 21.216C118.162 22.032 117.466 22.72 116.73 23.28C115.994 23.84 115.282 24.12 114.594 24.12C114.066 24.12 113.578 23.944 113.13 23.592C112.698 23.224 112.37 22.728 112.146 22.104C111.314 23.448 110.266 24.12 109.002 24.12ZM109.866 21.696C110.218 21.696 110.554 21.488 110.874 21.072C111.194 20.656 111.426 20.104 111.57 19.416L112.458 15C111.786 15.016 111.162 15.272 110.586 15.768C110.026 16.248 109.578 16.888 109.242 17.688C108.906 18.488 108.738 19.336 108.738 20.232C108.738 20.728 108.834 21.096 109.026 21.336C109.234 21.576 109.514 21.696 109.866 21.696ZM119.772 24.12C119.052 24.12 118.46 23.792 117.996 23.136C117.548 22.464 117.324 21.632 117.324 20.64C117.324 19.44 117.404 18.344 117.564 17.352C117.724 16.344 117.988 15.28 118.356 14.16C118.516 13.68 118.74 13.336 119.028 13.128C119.316 12.92 119.772 12.816 120.396 12.816C120.748 12.816 120.988 12.872 121.116 12.984C121.26 13.096 121.332 13.264 121.332 13.488C121.332 13.616 121.244 14.048 121.068 14.784C120.908 15.376 120.78 15.912 120.684 16.392C120.364 18.072 120.204 19.192 120.204 19.752C120.204 20.088 120.244 20.328 120.324 20.472C120.404 20.6 120.532 20.664 120.708 20.664C120.948 20.664 121.244 20.424 121.596 19.944C121.964 19.464 122.348 18.736 122.748 17.76C123.164 16.784 123.564 15.584 123.948 14.16C124.076 13.68 124.268 13.336 124.524 13.128C124.796 12.92 125.196 12.816 125.724 12.816C126.092 12.816 126.348 12.864 126.492 12.96C126.636 13.04 126.708 13.2 126.708 13.44C126.708 13.84 126.508 14.936 126.108 16.728C125.66 18.776 125.436 20.04 125.436 20.52C125.436 20.824 125.5 21.064 125.628 21.24C125.756 21.4 125.924 21.48 126.132 21.48C126.452 21.48 126.828 21.288 127.26 20.904C127.708 20.504 128.3 19.864 129.036 18.984C129.228 18.76 129.444 18.648 129.684 18.648C129.892 18.648 130.052 18.744 130.164 18.936C130.292 19.128 130.356 19.392 130.356 19.728C130.356 20.368 130.204 20.864 129.9 21.216C129.212 22.064 128.468 22.76 127.668 23.304C126.884 23.848 125.988 24.12 124.98 24.12C124.212 24.12 123.644 23.824 123.276 23.232C122.924 22.64 122.748 21.808 122.748 20.736C122.476 21.824 122.068 22.664 121.524 23.256C120.98 23.832 120.396 24.12 119.772 24.12ZM142.042 18.648C142.25 18.648 142.41 18.744 142.522 18.936C142.65 19.128 142.714 19.392 142.714 19.728C142.714 20.368 142.562 20.864 142.258 21.216C141.602 22.016 140.882 22.704 140.098 23.28C139.314 23.84 138.538 24.12 137.77 24.12C136.554 24.12 135.626 23.408 134.986 21.984C134.314 22.832 133.722 23.4 133.21 23.688C132.714 23.976 132.13 24.12 131.458 24.12C130.482 24.12 129.674 23.76 129.034 23.04C128.41 22.304 128.098 21.352 128.098 20.184C128.098 18.904 128.37 17.72 128.914 16.632C129.458 15.528 130.202 14.632 131.146 13.944C132.106 13.24 133.178 12.824 134.362 12.696C134.666 9.592 135.242 6.944 136.09 4.752C136.954 2.544 138.082 1.44 139.474 1.44C140.162 1.44 140.73 1.752 141.178 2.376C141.642 3 141.874 3.944 141.874 5.208C141.874 7 141.434 9.096 140.554 11.496C139.674 13.896 138.498 16.36 137.026 18.888C137.09 19.816 137.226 20.48 137.434 20.88C137.658 21.28 137.938 21.48 138.274 21.48C138.706 21.48 139.146 21.288 139.594 20.904C140.042 20.52 140.642 19.88 141.394 18.984C141.586 18.76 141.802 18.648 142.042 18.648ZM139.21 3.792C138.906 3.792 138.602 4.336 138.298 5.424C137.994 6.496 137.73 7.904 137.506 9.648C137.298 11.392 137.146 13.216 137.05 15.12C138.842 11.216 139.738 8.08 139.738 5.712C139.738 5.104 139.682 4.632 139.57 4.296C139.474 3.96 139.354 3.792 139.21 3.792ZM132.298 21.696C132.602 21.696 132.906 21.576 133.21 21.336C133.514 21.08 133.898 20.616 134.362 19.944C134.202 19.08 134.122 18.112 134.122 17.04C134.122 16.656 134.138 16.032 134.17 15.168C133.29 15.44 132.554 16.032 131.962 16.944C131.386 17.84 131.098 18.84 131.098 19.944C131.098 21.112 131.498 21.696 132.298 21.696ZM154.081 18.648C154.289 18.648 154.449 18.744 154.561 18.936C154.689 19.128 154.753 19.392 154.753 19.728C154.753 20.368 154.601 20.864 154.297 21.216C153.561 22.064 152.801 22.76 152.017 23.304C151.249 23.848 150.369 24.12 149.377 24.12C148.561 24.12 147.945 23.888 147.529 23.424C147.113 22.944 146.905 22.256 146.905 21.36C146.905 20.912 147.017 20.112 147.241 18.96C147.449 17.952 147.553 17.256 147.553 16.872C147.553 16.616 147.465 16.488 147.289 16.488C147.081 16.488 146.785 16.76 146.401 17.304C146.017 17.832 145.633 18.536 145.249 19.416C144.865 20.296 144.553 21.224 144.313 22.2C144.009 23.48 143.257 24.12 142.057 24.12C141.577 24.12 141.257 23.952 141.097 23.616C140.953 23.264 140.881 22.64 140.881 21.744C140.881 21.232 140.889 20.824 140.905 20.52L140.929 18.6C140.929 16.136 141.177 13.568 141.673 10.896C142.185 8.224 142.929 5.984 143.905 4.176C144.897 2.352 146.081 1.44 147.457 1.44C148.193 1.44 148.785 1.76 149.233 2.4C149.697 3.024 149.929 3.84 149.929 4.848C149.929 6.464 149.457 8.144 148.513 9.888C147.569 11.616 146.033 13.64 143.905 15.96C143.857 16.792 143.833 17.648 143.833 18.528C144.361 17.168 144.945 16.064 145.585 15.216C146.241 14.352 146.881 13.736 147.505 13.368C148.145 13 148.729 12.816 149.257 12.816C150.297 12.816 150.817 13.336 150.817 14.376C150.817 15 150.641 16.128 150.289 17.76C149.985 19.152 149.833 20.072 149.833 20.52C149.833 21.16 150.065 21.48 150.529 21.48C150.849 21.48 151.225 21.288 151.657 20.904C152.105 20.504 152.697 19.864 153.433 18.984C153.625 18.76 153.841 18.648 154.081 18.648ZM146.953 3.816C146.665 3.816 146.345 4.232 145.993 5.064C145.641 5.88 145.297 6.992 144.961 8.4C144.641 9.792 144.377 11.312 144.169 12.96C145.161 11.792 145.977 10.52 146.617 9.144C147.273 7.768 147.601 6.52 147.601 5.4C147.601 4.888 147.545 4.496 147.433 4.224C147.321 3.952 147.161 3.816 146.953 3.816ZM155.76 24.12C154.768 24.12 153.976 23.76 153.384 23.04C152.792 22.32 152.496 21.376 152.496 20.208C152.496 18.928 152.792 17.72 153.384 16.584C153.976 15.432 154.76 14.512 155.736 13.824C156.728 13.12 157.776 12.768 158.88 12.768C159.232 12.768 159.464 12.84 159.576 12.984C159.704 13.112 159.808 13.352 159.888 13.704C160.224 13.64 160.576 13.608 160.944 13.608C161.728 13.608 162.12 13.888 162.12 14.448C162.12 14.784 162 15.584 161.76 16.848C161.392 18.688 161.208 19.968 161.208 20.688C161.208 20.928 161.264 21.12 161.376 21.264C161.504 21.408 161.664 21.48 161.856 21.48C162.16 21.48 162.528 21.288 162.96 20.904C163.392 20.504 163.976 19.864 164.712 18.984C164.904 18.76 165.12 18.648 165.36 18.648C165.568 18.648 165.728 18.744 165.84 18.936C165.968 19.128 166.032 19.392 166.032 19.728C166.032 20.368 165.88 20.864 165.576 21.216C164.92 22.032 164.224 22.72 163.488 23.28C162.752 23.84 162.04 24.12 161.352 24.12C160.824 24.12 160.336 23.944 159.888 23.592C159.456 23.224 159.128 22.728 158.904 22.104C158.072 23.448 157.024 24.12 155.76 24.12ZM156.624 21.696C156.976 21.696 157.312 21.488 157.632 21.072C157.952 20.656 158.184 20.104 158.328 19.416L159.216 15C158.544 15.016 157.92 15.272 157.344 15.768C156.784 16.248 156.336 16.888 156 17.688C155.664 18.488 155.496 19.336 155.496 20.232C155.496 20.728 155.592 21.096 155.784 21.336C155.992 21.576 156.272 21.696 156.624 21.696ZM165.786 24.12C165.178 24.12 164.746 23.8 164.49 23.16C164.25 22.52 164.13 21.496 164.13 20.088C164.13 18.008 164.426 16.032 165.018 14.16C165.162 13.696 165.394 13.36 165.714 13.152C166.05 12.928 166.514 12.816 167.106 12.816C167.426 12.816 167.65 12.856 167.778 12.936C167.906 13.016 167.97 13.168 167.97 13.392C167.97 13.648 167.85 14.224 167.61 15.12C167.45 15.76 167.322 16.32 167.226 16.8C167.13 17.28 167.05 17.872 166.986 18.576C167.514 17.2 168.106 16.08 168.762 15.216C169.418 14.352 170.058 13.736 170.682 13.368C171.322 13 171.906 12.816 172.434 12.816C173.474 12.816 173.994 13.336 173.994 14.376C173.994 14.584 173.922 15.088 173.778 15.888C173.65 16.528 173.586 16.928 173.586 17.088C173.586 17.648 173.786 17.928 174.186 17.928C174.634 17.928 175.21 17.576 175.914 16.872C176.122 16.664 176.338 16.56 176.562 16.56C176.77 16.56 176.93 16.656 177.042 16.848C177.17 17.024 177.234 17.264 177.234 17.568C177.234 18.16 177.074 18.624 176.754 18.96C176.306 19.424 175.778 19.824 175.17 20.16C174.578 20.48 173.946 20.64 173.274 20.64C172.426 20.64 171.778 20.424 171.33 19.992C170.898 19.56 170.682 18.976 170.682 18.24C170.682 18 170.706 17.76 170.754 17.52C170.786 17.2 170.802 16.984 170.802 16.872C170.802 16.616 170.714 16.488 170.538 16.488C170.298 16.488 169.978 16.76 169.578 17.304C169.194 17.832 168.81 18.536 168.426 19.416C168.042 20.296 167.73 21.224 167.49 22.2C167.314 22.952 167.106 23.464 166.866 23.736C166.642 23.992 166.282 24.12 165.786 24.12ZM183.403 12.816C183.771 12.816 184.027 12.864 184.171 12.96C184.315 13.056 184.387 13.216 184.387 13.44C184.387 13.824 184.179 15.192 183.763 17.544C183.395 19.8 183.179 21.136 183.115 21.552C182.523 25.664 181.707 28.92 180.667 31.32C179.627 33.72 178.243 34.92 176.515 34.92C175.699 34.92 175.035 34.664 174.523 34.152C174.011 33.656 173.755 33 173.755 32.184C173.755 31.432 173.923 30.664 174.259 29.88C174.611 29.096 175.251 28.192 176.179 27.168C177.123 26.16 178.451 25 180.163 23.688L180.235 23.136C180.347 22.544 180.475 21.696 180.619 20.592C180.299 21.744 179.851 22.624 179.275 23.232C178.699 23.824 178.091 24.12 177.451 24.12C176.731 24.12 176.139 23.792 175.675 23.136C175.227 22.464 175.003 21.632 175.003 20.64C175.003 19.44 175.083 18.344 175.243 17.352C175.403 16.344 175.667 15.28 176.035 14.16C176.195 13.68 176.419 13.336 176.707 13.128C176.995 12.92 177.451 12.816 178.075 12.816C178.427 12.816 178.667 12.872 178.795 12.984C178.939 13.096 179.011 13.264 179.011 13.488C179.011 13.616 178.923 14.048 178.747 14.784C178.587 15.376 178.459 15.912 178.363 16.392C178.235 17.048 178.123 17.68 178.027 18.288C177.931 18.88 177.883 19.368 177.883 19.752C177.883 20.36 178.051 20.664 178.387 20.664C178.627 20.664 178.923 20.424 179.275 19.944C179.643 19.464 180.027 18.736 180.427 17.76C180.843 16.784 181.243 15.584 181.627 14.16C181.755 13.68 181.947 13.336 182.203 13.128C182.475 12.92 182.875 12.816 183.403 12.816ZM176.779 32.592C177.179 32.592 177.627 32.128 178.123 31.2C178.619 30.272 179.115 28.728 179.611 26.568C178.379 27.608 177.483 28.552 176.923 29.4C176.379 30.264 176.107 31.016 176.107 31.656C176.107 31.928 176.155 32.152 176.251 32.328C176.363 32.504 176.539 32.592 176.779 32.592Z" />
    <path
        d="M8.84792 24.192C6.71992 24.192 5.01592 23.792 3.73592 22.992C2.45592 22.176 1.81592 20.936 1.81592 19.272C1.81592 18.392 1.96792 17.72 2.27192 17.256C2.57592 16.792 3.02392 16.56 3.61592 16.56C4.04792 16.56 4.39992 16.672 4.67192 16.896C4.94392 17.12 5.07992 17.408 5.07992 17.76C5.07992 18.08 5.05592 18.36 5.00792 18.6C5.00792 18.664 4.99192 18.776 4.95992 18.936C4.94392 19.096 4.93592 19.264 4.93592 19.44C4.93592 20.16 5.29592 20.696 6.01592 21.048C6.75192 21.4 7.77592 21.576 9.08792 21.576C10.4479 21.576 11.5119 21.336 12.2799 20.856C13.0479 20.36 13.4319 19.672 13.4319 18.792C13.4319 18.248 13.2559 17.784 12.9039 17.4C12.5519 17 12.1119 16.672 11.5839 16.416C11.0559 16.144 10.3119 15.816 9.35192 15.432C8.11992 14.952 7.11192 14.496 6.32792 14.064C5.55992 13.632 4.89592 13.048 4.33592 12.312C3.79192 11.56 3.51992 10.632 3.51992 9.528C3.51992 8.376 3.82392 7.352 4.43192 6.456C5.05592 5.56 5.94392 4.864 7.09592 4.368C8.26392 3.872 9.63192 3.624 11.1999 3.624C12.3679 3.624 13.4399 3.8 14.4159 4.152C15.3919 4.488 16.1679 5.008 16.7439 5.712C17.3359 6.416 17.6319 7.28 17.6319 8.304C17.6319 9.312 17.4799 10.072 17.1759 10.584C16.8719 11.096 16.4239 11.352 15.8319 11.352C15.4159 11.352 15.0639 11.224 14.7759 10.968C14.5039 10.712 14.3679 10.408 14.3679 10.056C14.3679 9.752 14.3919 9.472 14.4399 9.216C14.4879 8.736 14.5119 8.432 14.5119 8.304C14.5119 7.632 14.1839 7.12 13.5279 6.768C12.8719 6.416 12.0559 6.24 11.0799 6.24C9.70392 6.24 8.64792 6.496 7.91192 7.008C7.19192 7.504 6.83192 8.208 6.83192 9.12C6.83192 9.728 7.01592 10.248 7.38392 10.68C7.76792 11.112 8.23992 11.472 8.79992 11.76C9.35992 12.048 10.1439 12.392 11.1519 12.792C12.3679 13.288 13.3439 13.736 14.0799 14.136C14.8159 14.536 15.4399 15.08 15.9519 15.768C16.4799 16.456 16.7439 17.304 16.7439 18.312C16.7439 20.2 16.0239 21.656 14.5839 22.68C13.1599 23.688 11.2479 24.192 8.84792 24.192ZM21.7445 24.12C20.7525 24.12 19.9605 23.76 19.3685 23.04C18.7765 22.32 18.4805 21.376 18.4805 20.208C18.4805 18.928 18.7765 17.72 19.3685 16.584C19.9605 15.432 20.7445 14.512 21.7205 13.824C22.7125 13.12 23.7605 12.768 24.8645 12.768C25.2165 12.768 25.4485 12.84 25.5605 12.984C25.6885 13.112 25.7925 13.352 25.8725 13.704C26.2085 13.64 26.5605 13.608 26.9285 13.608C27.7125 13.608 28.1045 13.888 28.1045 14.448C28.1045 14.784 27.9845 15.584 27.7445 16.848C27.3765 18.688 27.1925 19.968 27.1925 20.688C27.1925 20.928 27.2485 21.12 27.3605 21.264C27.4885 21.408 27.6485 21.48 27.8405 21.48C28.1445 21.48 28.5125 21.288 28.9445 20.904C29.3765 20.504 29.9605 19.864 30.6965 18.984C30.8885 18.76 31.1045 18.648 31.3445 18.648C31.5525 18.648 31.7125 18.744 31.8245 18.936C31.9525 19.128 32.0165 19.392 32.0165 19.728C32.0165 20.368 31.8645 20.864 31.5605 21.216C30.9045 22.032 30.2085 22.72 29.4725 23.28C28.7365 23.84 28.0245 24.12 27.3365 24.12C26.8085 24.12 26.3205 23.944 25.8725 23.592C25.4405 23.224 25.1125 22.728 24.8885 22.104C24.0565 23.448 23.0085 24.12 21.7445 24.12ZM22.6085 21.696C22.9605 21.696 23.2965 21.488 23.6165 21.072C23.9365 20.656 24.1685 20.104 24.3125 19.416L25.2005 15C24.5285 15.016 23.9045 15.272 23.3285 15.768C22.7685 16.248 22.3205 16.888 21.9845 17.688C21.6485 18.488 21.4805 19.336 21.4805 20.232C21.4805 20.728 21.5765 21.096 21.7685 21.336C21.9765 21.576 22.2565 21.696 22.6085 21.696ZM31.77 24.12C31.162 24.12 30.73 23.8 30.474 23.16C30.234 22.52 30.114 21.496 30.114 20.088C30.114 18.008 30.41 16.032 31.002 14.16C31.146 13.696 31.378 13.36 31.698 13.152C32.034 12.928 32.498 12.816 33.09 12.816C33.41 12.816 33.634 12.856 33.762 12.936C33.89 13.016 33.954 13.168 33.954 13.392C33.954 13.648 33.834 14.224 33.594 15.12C33.434 15.76 33.306 16.32 33.21 16.8C33.114 17.28 33.034 17.872 32.97 18.576C33.498 17.2 34.09 16.08 34.746 15.216C35.402 14.352 36.042 13.736 36.666 13.368C37.306 13 37.89 12.816 38.418 12.816C39.458 12.816 39.978 13.336 39.978 14.376C39.978 15 39.802 16.128 39.45 17.76C39.146 19.152 38.994 20.072 38.994 20.52C38.994 21.16 39.226 21.48 39.69 21.48C40.01 21.48 40.386 21.288 40.818 20.904C41.266 20.504 41.858 19.864 42.594 18.984C42.786 18.76 43.002 18.648 43.242 18.648C43.45 18.648 43.61 18.744 43.722 18.936C43.85 19.128 43.914 19.392 43.914 19.728C43.914 20.368 43.762 20.864 43.458 21.216C42.77 22.064 42.026 22.76 41.226 23.304C40.442 23.848 39.546 24.12 38.538 24.12C37.722 24.12 37.106 23.888 36.69 23.424C36.274 22.944 36.066 22.256 36.066 21.36C36.066 20.912 36.178 20.112 36.402 18.96C36.61 17.952 36.714 17.256 36.714 16.872C36.714 16.616 36.626 16.488 36.45 16.488C36.242 16.488 35.946 16.76 35.562 17.304C35.194 17.832 34.81 18.536 34.41 19.416C34.026 20.296 33.714 21.224 33.474 22.2C33.298 22.952 33.09 23.464 32.85 23.736C32.626 23.992 32.266 24.12 31.77 24.12ZM55.6042 18.648C55.8122 18.648 55.9722 18.744 56.0842 18.936C56.2122 19.128 56.2762 19.392 56.2762 19.728C56.2762 20.368 56.1242 20.864 55.8202 21.216C55.1642 22.016 54.4442 22.704 53.6602 23.28C52.8762 23.84 52.1002 24.12 51.3322 24.12C50.1162 24.12 49.1882 23.408 48.5482 21.984C47.8762 22.832 47.2842 23.4 46.7722 23.688C46.2762 23.976 45.6922 24.12 45.0202 24.12C44.0442 24.12 43.2362 23.76 42.5962 23.04C41.9722 22.304 41.6602 21.352 41.6602 20.184C41.6602 18.904 41.9322 17.72 42.4762 16.632C43.0202 15.528 43.7642 14.632 44.7082 13.944C45.6682 13.24 46.7402 12.824 47.9242 12.696C48.2282 9.592 48.8042 6.944 49.6522 4.752C50.5162 2.544 51.6442 1.44 53.0362 1.44C53.7242 1.44 54.2922 1.752 54.7402 2.376C55.2042 3 55.4362 3.944 55.4362 5.208C55.4362 7 54.9962 9.096 54.1162 11.496C53.2362 13.896 52.0602 16.36 50.5882 18.888C50.6522 19.816 50.7882 20.48 50.9962 20.88C51.2202 21.28 51.5002 21.48 51.8362 21.48C52.2682 21.48 52.7082 21.288 53.1562 20.904C53.6042 20.52 54.2042 19.88 54.9562 18.984C55.1482 18.76 55.3642 18.648 55.6042 18.648ZM52.7722 3.792C52.4682 3.792 52.1642 4.336 51.8602 5.424C51.5562 6.496 51.2922 7.904 51.0682 9.648C50.8602 11.392 50.7082 13.216 50.6122 15.12C52.4042 11.216 53.3002 8.08 53.3002 5.712C53.3002 5.104 53.2442 4.632 53.1322 4.296C53.0362 3.96 52.9162 3.792 52.7722 3.792ZM45.8602 21.696C46.1642 21.696 46.4682 21.576 46.7722 21.336C47.0762 21.08 47.4602 20.616 47.9242 19.944C47.7642 19.08 47.6842 18.112 47.6842 17.04C47.6842 16.656 47.7002 16.032 47.7322 15.168C46.8522 15.44 46.1162 16.032 45.5242 16.944C44.9482 17.84 44.6602 18.84 44.6602 19.944C44.6602 21.112 45.0602 21.696 45.8602 21.696ZM57.4678 11.232C56.7958 11.232 56.2918 11.08 55.9558 10.776C55.6198 10.456 55.4518 10.016 55.4518 9.456C55.4518 8.896 55.6678 8.432 56.0998 8.064C56.5478 7.68 57.0998 7.488 57.7558 7.488C58.3478 7.488 58.8278 7.632 59.1958 7.92C59.5638 8.208 59.7478 8.616 59.7478 9.144C59.7478 9.784 59.5398 10.296 59.1238 10.68C58.7078 11.048 58.1558 11.232 57.4678 11.232ZM57.2758 24.12C56.2358 24.12 55.4758 23.752 54.9958 23.016C54.5318 22.28 54.2998 21.304 54.2998 20.088C54.2998 19.368 54.3878 18.448 54.5638 17.328C54.7558 16.192 54.9958 15.136 55.2838 14.16C55.4278 13.648 55.6198 13.296 55.8598 13.104C56.0998 12.912 56.4838 12.816 57.0118 12.816C57.8278 12.816 58.2358 13.088 58.2358 13.632C58.2358 14.032 58.0838 14.96 57.7798 16.416C57.3958 18.176 57.2038 19.368 57.2038 19.992C57.2038 20.472 57.2678 20.84 57.3958 21.096C57.5238 21.352 57.7398 21.48 58.0438 21.48C58.3318 21.48 58.6918 21.28 59.1238 20.88C59.5558 20.48 60.1318 19.848 60.8518 18.984C61.0438 18.76 61.2598 18.648 61.4998 18.648C61.7078 18.648 61.8678 18.744 61.9798 18.936C62.1078 19.128 62.1718 19.392 62.1718 19.728C62.1718 20.368 62.0198 20.864 61.7158 21.216C60.1318 23.152 58.6518 24.12 57.2758 24.12ZM69.734 16.68C69.734 17.944 69.438 19.144 68.846 20.28C68.27 21.4 67.494 22.312 66.518 23.016C65.558 23.72 64.526 24.088 63.422 24.12C63.214 27.208 62.742 29.784 62.006 31.848C61.27 33.928 60.19 34.968 58.766 34.968C57.902 34.968 57.262 34.656 56.846 34.032C56.43 33.408 56.222 32.544 56.222 31.44C56.222 29.872 56.582 28.04 57.302 25.944C58.022 23.864 59.134 21.568 60.638 19.056C60.638 16.72 60.622 15.096 60.59 14.184C60.574 13.72 60.758 13.352 61.142 13.08C61.526 12.808 62.006 12.672 62.582 12.672C62.918 12.672 63.158 12.744 63.302 12.888C63.462 13.016 63.55 13.28 63.566 13.68C63.566 14.08 63.574 14.376 63.59 14.568C64.102 13.928 64.606 13.472 65.102 13.2C65.598 12.912 66.126 12.768 66.686 12.768C67.582 12.768 68.31 13.128 68.87 13.848C69.446 14.568 69.734 15.512 69.734 16.68ZM63.542 21.816C64.118 21.688 64.646 21.376 65.126 20.88C65.622 20.368 66.014 19.744 66.302 19.008C66.59 18.256 66.734 17.472 66.734 16.656C66.734 16.176 66.638 15.816 66.446 15.576C66.254 15.32 65.998 15.192 65.678 15.192C65.102 15.192 64.406 15.8 63.59 17.016C63.574 17.72 63.566 18.752 63.566 20.112C63.566 20.848 63.558 21.416 63.542 21.816ZM58.958 32.616C59.39 32.616 59.75 31.672 60.038 29.784C60.326 27.912 60.51 25.576 60.59 22.776C59.902 24.376 59.358 25.904 58.958 27.36C58.558 28.816 58.358 30.04 58.358 31.032C58.358 31.544 58.422 31.936 58.55 32.208C58.662 32.48 58.798 32.616 58.958 32.616ZM87.2704 24.12C85.3664 24.12 83.7104 23.776 82.3024 23.088C80.8944 22.384 79.8144 21.392 79.0624 20.112C78.3104 18.832 77.9344 17.344 77.9344 15.648C77.9344 13.296 78.3744 11.208 79.2544 9.384C80.1504 7.56 81.3584 6.152 82.8784 5.16C84.3984 4.152 86.0864 3.648 87.9424 3.648C89.6704 3.648 90.9824 4.096 91.8784 4.992C92.7744 5.872 93.2224 7.04 93.2224 8.496C93.2224 9.472 93.0464 10.256 92.6944 10.848C92.3584 11.44 91.8704 11.736 91.2304 11.736C90.7824 11.736 90.4304 11.632 90.1744 11.424C89.9184 11.216 89.7904 10.912 89.7904 10.512C89.7904 10.368 89.8224 10.104 89.8864 9.72C89.9824 9.24 90.0304 8.856 90.0304 8.568C90.0304 7.112 89.2544 6.384 87.7024 6.384C86.6464 6.384 85.6384 6.728 84.6784 7.416C83.7184 8.104 82.9424 9.12 82.3504 10.464C81.7584 11.792 81.4624 13.376 81.4624 15.216C81.4624 17.136 81.9984 18.624 83.0704 19.68C84.1424 20.72 85.7264 21.24 87.8224 21.24C88.8624 21.24 89.9104 21.112 90.9664 20.856C92.0384 20.584 93.2224 20.176 94.5184 19.632C94.7584 19.536 94.9584 19.488 95.1184 19.488C95.3744 19.488 95.5664 19.584 95.6944 19.776C95.8224 19.968 95.8864 20.216 95.8864 20.52C95.8864 21.496 95.3584 22.216 94.3024 22.68C93.1664 23.176 91.9824 23.544 90.7504 23.784C89.5344 24.008 88.3744 24.12 87.2704 24.12ZM107.323 18.648C107.531 18.648 107.691 18.744 107.803 18.936C107.931 19.128 107.995 19.392 107.995 19.728C107.995 20.368 107.843 20.864 107.539 21.216C106.803 22.064 106.043 22.76 105.259 23.304C104.491 23.848 103.611 24.12 102.619 24.12C101.803 24.12 101.187 23.888 100.771 23.424C100.355 22.944 100.147 22.256 100.147 21.36C100.147 20.912 100.259 20.112 100.483 18.96C100.691 17.952 100.795 17.256 100.795 16.872C100.795 16.616 100.707 16.488 100.531 16.488C100.323 16.488 100.027 16.76 99.6435 17.304C99.2595 17.832 98.8755 18.536 98.4915 19.416C98.1075 20.296 97.7955 21.224 97.5555 22.2C97.2515 23.48 96.4995 24.12 95.2995 24.12C94.8195 24.12 94.4995 23.952 94.3395 23.616C94.1955 23.264 94.1235 22.64 94.1235 21.744C94.1235 21.232 94.1315 20.824 94.1475 20.52L94.1715 18.6C94.1715 16.136 94.4195 13.568 94.9155 10.896C95.4275 8.224 96.1715 5.984 97.1475 4.176C98.1395 2.352 99.3235 1.44 100.699 1.44C101.435 1.44 102.027 1.76 102.475 2.4C102.939 3.024 103.171 3.84 103.171 4.848C103.171 6.464 102.699 8.144 101.755 9.888C100.811 11.616 99.2755 13.64 97.1475 15.96C97.0995 16.792 97.0755 17.648 97.0755 18.528C97.6035 17.168 98.1875 16.064 98.8275 15.216C99.4835 14.352 100.123 13.736 100.747 13.368C101.387 13 101.971 12.816 102.499 12.816C103.539 12.816 104.059 13.336 104.059 14.376C104.059 15 103.883 16.128 103.531 17.76C103.227 19.152 103.075 20.072 103.075 20.52C103.075 21.16 103.307 21.48 103.771 21.48C104.091 21.48 104.467 21.288 104.899 20.904C105.347 20.504 105.939 19.864 106.675 18.984C106.867 18.76 107.083 18.648 107.323 18.648ZM100.195 3.816C99.9075 3.816 99.5875 4.232 99.2355 5.064C98.8835 5.88 98.5395 6.992 98.2035 8.4C97.8835 9.792 97.6195 11.312 97.4115 12.96C98.4035 11.792 99.2195 10.52 99.8595 9.144C100.515 7.768 100.843 6.52 100.843 5.4C100.843 4.888 100.787 4.496 100.675 4.224C100.563 3.952 100.403 3.816 100.195 3.816ZM109.002 24.12C108.01 24.12 107.218 23.76 106.626 23.04C106.034 22.32 105.738 21.376 105.738 20.208C105.738 18.928 106.034 17.72 106.626 16.584C107.218 15.432 108.002 14.512 108.978 13.824C109.97 13.12 111.018 12.768 112.122 12.768C112.474 12.768 112.706 12.84 112.818 12.984C112.946 13.112 113.05 13.352 113.13 13.704C113.466 13.64 113.818 13.608 114.186 13.608C114.97 13.608 115.362 13.888 115.362 14.448C115.362 14.784 115.242 15.584 115.002 16.848C114.634 18.688 114.45 19.968 114.45 20.688C114.45 20.928 114.506 21.12 114.618 21.264C114.746 21.408 114.906 21.48 115.098 21.48C115.402 21.48 115.77 21.288 116.202 20.904C116.634 20.504 117.218 19.864 117.954 18.984C118.146 18.76 118.362 18.648 118.602 18.648C118.81 18.648 118.97 18.744 119.082 18.936C119.21 19.128 119.274 19.392 119.274 19.728C119.274 20.368 119.122 20.864 118.818 21.216C118.162 22.032 117.466 22.72 116.73 23.28C115.994 23.84 115.282 24.12 114.594 24.12C114.066 24.12 113.578 23.944 113.13 23.592C112.698 23.224 112.37 22.728 112.146 22.104C111.314 23.448 110.266 24.12 109.002 24.12ZM109.866 21.696C110.218 21.696 110.554 21.488 110.874 21.072C111.194 20.656 111.426 20.104 111.57 19.416L112.458 15C111.786 15.016 111.162 15.272 110.586 15.768C110.026 16.248 109.578 16.888 109.242 17.688C108.906 18.488 108.738 19.336 108.738 20.232C108.738 20.728 108.834 21.096 109.026 21.336C109.234 21.576 109.514 21.696 109.866 21.696ZM119.772 24.12C119.052 24.12 118.46 23.792 117.996 23.136C117.548 22.464 117.324 21.632 117.324 20.64C117.324 19.44 117.404 18.344 117.564 17.352C117.724 16.344 117.988 15.28 118.356 14.16C118.516 13.68 118.74 13.336 119.028 13.128C119.316 12.92 119.772 12.816 120.396 12.816C120.748 12.816 120.988 12.872 121.116 12.984C121.26 13.096 121.332 13.264 121.332 13.488C121.332 13.616 121.244 14.048 121.068 14.784C120.908 15.376 120.78 15.912 120.684 16.392C120.364 18.072 120.204 19.192 120.204 19.752C120.204 20.088 120.244 20.328 120.324 20.472C120.404 20.6 120.532 20.664 120.708 20.664C120.948 20.664 121.244 20.424 121.596 19.944C121.964 19.464 122.348 18.736 122.748 17.76C123.164 16.784 123.564 15.584 123.948 14.16C124.076 13.68 124.268 13.336 124.524 13.128C124.796 12.92 125.196 12.816 125.724 12.816C126.092 12.816 126.348 12.864 126.492 12.96C126.636 13.04 126.708 13.2 126.708 13.44C126.708 13.84 126.508 14.936 126.108 16.728C125.66 18.776 125.436 20.04 125.436 20.52C125.436 20.824 125.5 21.064 125.628 21.24C125.756 21.4 125.924 21.48 126.132 21.48C126.452 21.48 126.828 21.288 127.26 20.904C127.708 20.504 128.3 19.864 129.036 18.984C129.228 18.76 129.444 18.648 129.684 18.648C129.892 18.648 130.052 18.744 130.164 18.936C130.292 19.128 130.356 19.392 130.356 19.728C130.356 20.368 130.204 20.864 129.9 21.216C129.212 22.064 128.468 22.76 127.668 23.304C126.884 23.848 125.988 24.12 124.98 24.12C124.212 24.12 123.644 23.824 123.276 23.232C122.924 22.64 122.748 21.808 122.748 20.736C122.476 21.824 122.068 22.664 121.524 23.256C120.98 23.832 120.396 24.12 119.772 24.12ZM142.042 18.648C142.25 18.648 142.41 18.744 142.522 18.936C142.65 19.128 142.714 19.392 142.714 19.728C142.714 20.368 142.562 20.864 142.258 21.216C141.602 22.016 140.882 22.704 140.098 23.28C139.314 23.84 138.538 24.12 137.77 24.12C136.554 24.12 135.626 23.408 134.986 21.984C134.314 22.832 133.722 23.4 133.21 23.688C132.714 23.976 132.13 24.12 131.458 24.12C130.482 24.12 129.674 23.76 129.034 23.04C128.41 22.304 128.098 21.352 128.098 20.184C128.098 18.904 128.37 17.72 128.914 16.632C129.458 15.528 130.202 14.632 131.146 13.944C132.106 13.24 133.178 12.824 134.362 12.696C134.666 9.592 135.242 6.944 136.09 4.752C136.954 2.544 138.082 1.44 139.474 1.44C140.162 1.44 140.73 1.752 141.178 2.376C141.642 3 141.874 3.944 141.874 5.208C141.874 7 141.434 9.096 140.554 11.496C139.674 13.896 138.498 16.36 137.026 18.888C137.09 19.816 137.226 20.48 137.434 20.88C137.658 21.28 137.938 21.48 138.274 21.48C138.706 21.48 139.146 21.288 139.594 20.904C140.042 20.52 140.642 19.88 141.394 18.984C141.586 18.76 141.802 18.648 142.042 18.648ZM139.21 3.792C138.906 3.792 138.602 4.336 138.298 5.424C137.994 6.496 137.73 7.904 137.506 9.648C137.298 11.392 137.146 13.216 137.05 15.12C138.842 11.216 139.738 8.08 139.738 5.712C139.738 5.104 139.682 4.632 139.57 4.296C139.474 3.96 139.354 3.792 139.21 3.792ZM132.298 21.696C132.602 21.696 132.906 21.576 133.21 21.336C133.514 21.08 133.898 20.616 134.362 19.944C134.202 19.08 134.122 18.112 134.122 17.04C134.122 16.656 134.138 16.032 134.17 15.168C133.29 15.44 132.554 16.032 131.962 16.944C131.386 17.84 131.098 18.84 131.098 19.944C131.098 21.112 131.498 21.696 132.298 21.696ZM154.081 18.648C154.289 18.648 154.449 18.744 154.561 18.936C154.689 19.128 154.753 19.392 154.753 19.728C154.753 20.368 154.601 20.864 154.297 21.216C153.561 22.064 152.801 22.76 152.017 23.304C151.249 23.848 150.369 24.12 149.377 24.12C148.561 24.12 147.945 23.888 147.529 23.424C147.113 22.944 146.905 22.256 146.905 21.36C146.905 20.912 147.017 20.112 147.241 18.96C147.449 17.952 147.553 17.256 147.553 16.872C147.553 16.616 147.465 16.488 147.289 16.488C147.081 16.488 146.785 16.76 146.401 17.304C146.017 17.832 145.633 18.536 145.249 19.416C144.865 20.296 144.553 21.224 144.313 22.2C144.009 23.48 143.257 24.12 142.057 24.12C141.577 24.12 141.257 23.952 141.097 23.616C140.953 23.264 140.881 22.64 140.881 21.744C140.881 21.232 140.889 20.824 140.905 20.52L140.929 18.6C140.929 16.136 141.177 13.568 141.673 10.896C142.185 8.224 142.929 5.984 143.905 4.176C144.897 2.352 146.081 1.44 147.457 1.44C148.193 1.44 148.785 1.76 149.233 2.4C149.697 3.024 149.929 3.84 149.929 4.848C149.929 6.464 149.457 8.144 148.513 9.888C147.569 11.616 146.033 13.64 143.905 15.96C143.857 16.792 143.833 17.648 143.833 18.528C144.361 17.168 144.945 16.064 145.585 15.216C146.241 14.352 146.881 13.736 147.505 13.368C148.145 13 148.729 12.816 149.257 12.816C150.297 12.816 150.817 13.336 150.817 14.376C150.817 15 150.641 16.128 150.289 17.76C149.985 19.152 149.833 20.072 149.833 20.52C149.833 21.16 150.065 21.48 150.529 21.48C150.849 21.48 151.225 21.288 151.657 20.904C152.105 20.504 152.697 19.864 153.433 18.984C153.625 18.76 153.841 18.648 154.081 18.648ZM146.953 3.816C146.665 3.816 146.345 4.232 145.993 5.064C145.641 5.88 145.297 6.992 144.961 8.4C144.641 9.792 144.377 11.312 144.169 12.96C145.161 11.792 145.977 10.52 146.617 9.144C147.273 7.768 147.601 6.52 147.601 5.4C147.601 4.888 147.545 4.496 147.433 4.224C147.321 3.952 147.161 3.816 146.953 3.816ZM155.76 24.12C154.768 24.12 153.976 23.76 153.384 23.04C152.792 22.32 152.496 21.376 152.496 20.208C152.496 18.928 152.792 17.72 153.384 16.584C153.976 15.432 154.76 14.512 155.736 13.824C156.728 13.12 157.776 12.768 158.88 12.768C159.232 12.768 159.464 12.84 159.576 12.984C159.704 13.112 159.808 13.352 159.888 13.704C160.224 13.64 160.576 13.608 160.944 13.608C161.728 13.608 162.12 13.888 162.12 14.448C162.12 14.784 162 15.584 161.76 16.848C161.392 18.688 161.208 19.968 161.208 20.688C161.208 20.928 161.264 21.12 161.376 21.264C161.504 21.408 161.664 21.48 161.856 21.48C162.16 21.48 162.528 21.288 162.96 20.904C163.392 20.504 163.976 19.864 164.712 18.984C164.904 18.76 165.12 18.648 165.36 18.648C165.568 18.648 165.728 18.744 165.84 18.936C165.968 19.128 166.032 19.392 166.032 19.728C166.032 20.368 165.88 20.864 165.576 21.216C164.92 22.032 164.224 22.72 163.488 23.28C162.752 23.84 162.04 24.12 161.352 24.12C160.824 24.12 160.336 23.944 159.888 23.592C159.456 23.224 159.128 22.728 158.904 22.104C158.072 23.448 157.024 24.12 155.76 24.12ZM156.624 21.696C156.976 21.696 157.312 21.488 157.632 21.072C157.952 20.656 158.184 20.104 158.328 19.416L159.216 15C158.544 15.016 157.92 15.272 157.344 15.768C156.784 16.248 156.336 16.888 156 17.688C155.664 18.488 155.496 19.336 155.496 20.232C155.496 20.728 155.592 21.096 155.784 21.336C155.992 21.576 156.272 21.696 156.624 21.696ZM165.786 24.12C165.178 24.12 164.746 23.8 164.49 23.16C164.25 22.52 164.13 21.496 164.13 20.088C164.13 18.008 164.426 16.032 165.018 14.16C165.162 13.696 165.394 13.36 165.714 13.152C166.05 12.928 166.514 12.816 167.106 12.816C167.426 12.816 167.65 12.856 167.778 12.936C167.906 13.016 167.97 13.168 167.97 13.392C167.97 13.648 167.85 14.224 167.61 15.12C167.45 15.76 167.322 16.32 167.226 16.8C167.13 17.28 167.05 17.872 166.986 18.576C167.514 17.2 168.106 16.08 168.762 15.216C169.418 14.352 170.058 13.736 170.682 13.368C171.322 13 171.906 12.816 172.434 12.816C173.474 12.816 173.994 13.336 173.994 14.376C173.994 14.584 173.922 15.088 173.778 15.888C173.65 16.528 173.586 16.928 173.586 17.088C173.586 17.648 173.786 17.928 174.186 17.928C174.634 17.928 175.21 17.576 175.914 16.872C176.122 16.664 176.338 16.56 176.562 16.56C176.77 16.56 176.93 16.656 177.042 16.848C177.17 17.024 177.234 17.264 177.234 17.568C177.234 18.16 177.074 18.624 176.754 18.96C176.306 19.424 175.778 19.824 175.17 20.16C174.578 20.48 173.946 20.64 173.274 20.64C172.426 20.64 171.778 20.424 171.33 19.992C170.898 19.56 170.682 18.976 170.682 18.24C170.682 18 170.706 17.76 170.754 17.52C170.786 17.2 170.802 16.984 170.802 16.872C170.802 16.616 170.714 16.488 170.538 16.488C170.298 16.488 169.978 16.76 169.578 17.304C169.194 17.832 168.81 18.536 168.426 19.416C168.042 20.296 167.73 21.224 167.49 22.2C167.314 22.952 167.106 23.464 166.866 23.736C166.642 23.992 166.282 24.12 165.786 24.12ZM183.403 12.816C183.771 12.816 184.027 12.864 184.171 12.96C184.315 13.056 184.387 13.216 184.387 13.44C184.387 13.824 184.179 15.192 183.763 17.544C183.395 19.8 183.179 21.136 183.115 21.552C182.523 25.664 181.707 28.92 180.667 31.32C179.627 33.72 178.243 34.92 176.515 34.92C175.699 34.92 175.035 34.664 174.523 34.152C174.011 33.656 173.755 33 173.755 32.184C173.755 31.432 173.923 30.664 174.259 29.88C174.611 29.096 175.251 28.192 176.179 27.168C177.123 26.16 178.451 25 180.163 23.688L180.235 23.136C180.347 22.544 180.475 21.696 180.619 20.592C180.299 21.744 179.851 22.624 179.275 23.232C178.699 23.824 178.091 24.12 177.451 24.12C176.731 24.12 176.139 23.792 175.675 23.136C175.227 22.464 175.003 21.632 175.003 20.64C175.003 19.44 175.083 18.344 175.243 17.352C175.403 16.344 175.667 15.28 176.035 14.16C176.195 13.68 176.419 13.336 176.707 13.128C176.995 12.92 177.451 12.816 178.075 12.816C178.427 12.816 178.667 12.872 178.795 12.984C178.939 13.096 179.011 13.264 179.011 13.488C179.011 13.616 178.923 14.048 178.747 14.784C178.587 15.376 178.459 15.912 178.363 16.392C178.235 17.048 178.123 17.68 178.027 18.288C177.931 18.88 177.883 19.368 177.883 19.752C177.883 20.36 178.051 20.664 178.387 20.664C178.627 20.664 178.923 20.424 179.275 19.944C179.643 19.464 180.027 18.736 180.427 17.76C180.843 16.784 181.243 15.584 181.627 14.16C181.755 13.68 181.947 13.336 182.203 13.128C182.475 12.92 182.875 12.816 183.403 12.816ZM176.779 32.592C177.179 32.592 177.627 32.128 178.123 31.2C178.619 30.272 179.115 28.728 179.611 26.568C178.379 27.608 177.483 28.552 176.923 29.4C176.379 30.264 176.107 31.016 176.107 31.656C176.107 31.928 176.155 32.152 176.251 32.328C176.363 32.504 176.539 32.592 176.779 32.592Z"
        stroke="#7235D6" stroke-width="1" class="loader__content" />
</svg>