<svg width="46" height="46" viewBox="0 0 46 46" fill="none" xmlns="http://www.w3.org/2000/svg">
<path fill-rule="evenodd" clip-rule="evenodd" d="M0.666504 22.6667C0.666504 10.1482 10.8147 0 23.3332 0C35.8516 0 45.9998 10.1482 45.9998 22.6667C45.9998 35.1851 35.8516 45.3333 23.3332 45.3333C10.8147 45.3333 0.666504 35.1851 0.666504 22.6667ZM22.6543 18.4237L22.7019 19.2081L21.9091 19.112C19.0235 18.7439 16.5026 17.4954 14.3622 15.3985L13.3158 14.3581L13.0463 15.1264C12.4755 16.8391 12.8401 18.6478 14.0293 19.8643C14.6635 20.5366 14.5208 20.6326 13.4268 20.2325C13.0463 20.1044 12.7133 20.0084 12.6816 20.0564C12.5706 20.1685 12.9511 21.625 13.2524 22.2013C13.6646 23.0016 14.5049 23.7859 15.4245 24.2501L16.2014 24.6183L15.2818 24.6343C14.3939 24.6343 14.3622 24.6503 14.4573 24.9864C14.7744 26.0268 16.027 27.1313 17.4222 27.6115L18.4052 27.9476L17.549 28.4598C16.2806 29.1961 14.7903 29.6123 13.2999 29.6443C12.5865 29.6603 11.9998 29.7243 11.9998 29.7723C11.9998 29.9324 13.9341 30.8288 15.0598 31.1809C18.4369 32.2213 22.4482 31.7732 25.4606 29.9964C27.601 28.7319 29.7414 26.2189 30.7403 23.7859C31.2794 22.4894 31.8184 20.1204 31.8184 18.984C31.8184 18.2477 31.866 18.1516 32.7539 17.2713C33.2771 16.7591 33.7686 16.1988 33.8637 16.0388C34.0222 15.7347 34.0064 15.7347 33.1978 16.0068C31.8501 16.487 31.6599 16.4229 32.3258 15.7026C32.8173 15.1904 33.4039 14.2621 33.4039 13.99C33.4039 13.9419 33.1661 14.022 32.8965 14.166C32.6112 14.3261 31.977 14.5662 31.5013 14.7102L30.6452 14.9824L29.8683 14.4541C29.4402 14.166 28.8377 13.8459 28.5206 13.7499C27.712 13.5258 26.4753 13.5578 25.746 13.8139C23.7641 14.5342 22.5116 16.3909 22.6543 18.4237Z" fill="#E5E5E5"/>
</svg>
